<?xml version="1.0" standalone="no"?>
<!DOCTYPE svg PUBLIC "-//W3C//DTD SVG 1.1//EN" "http://www.w3.org/Graphics/SVG/1.1/DTD/svg11.dtd" >
<svg xmlns="http://www.w3.org/2000/svg">
<metadata></metadata>
<defs>
<font id="pt_sansregular" horiz-adv-x="1116" >
<font-face units-per-em="2048" ascent="1536" descent="-512" />
<missing-glyph horiz-adv-x="546" />
<glyph unicode="&#xfb01;" horiz-adv-x="1105" d="M45 881v143h160v57q0 193 95 280q94 87 280 87q120 0 215 -24q97 -25 147 -56l-55 -131q-56 35 -131 51q-79 17 -162 17q-76 0 -120 -18t-67 -53t-31 -89q-7 -49 -7 -121h577v-1024h-164v881h-413v-881h-164v881h-160z" />
<glyph unicode="&#xfb02;" horiz-adv-x="1193" d="M45 881v143h160v57q0 193 83 285t277 92q41 0 92 -3q34 -2 104 -8q38 -3 98 -11q35 -5 75 -15v-1169q0 -73 25 -102q26 -31 69 -31q32 0 59 4q38 6 70 18l17 -129q-18 -8 -40 -15q-17 -5 -51 -11q-38 -6 -53 -8q-27 -3 -47 -3q-92 0 -153 53q-60 52 -60 177v1093 q-42 8 -88 12q-63 5 -113 5q-67 0 -109 -20q-40 -19 -61 -57q-20 -36 -25 -92q-5 -60 -5 -122h211v-143h-211v-881h-164v881h-160z" />
<glyph horiz-adv-x="2048" />
<glyph horiz-adv-x="2048" />
<glyph unicode="&#xd;" horiz-adv-x="2048" />
<glyph unicode=" "  horiz-adv-x="546" />
<glyph unicode="&#x09;" horiz-adv-x="546" />
<glyph unicode="&#xa0;" horiz-adv-x="546" />
<glyph unicode="!" horiz-adv-x="624" d="M225 94q0 55 32 87t85 32q54 0 88 -32q33 -31 33 -87q0 -53 -33 -86t-88 -33q-54 0 -85 33q-32 34 -32 86zM260 723v711h170v-711l-35 -361h-100z" />
<glyph unicode="&#x22;" horiz-adv-x="686" d="M184 1038v396h160l-63 -396h-97zM424 1038v396h160l-64 -396h-96z" />
<glyph unicode="#" d="M57 461l29 131h162l63 268h-151l28 131h154l78 324h141l-78 -324h215l78 324h142l-78 -324h157l-32 -131h-156l-64 -268h150l-33 -131h-147l-80 -342h-141l79 342h-215l-79 -342h-142l80 342h-160zM389 592h215l64 268h-215z" />
<glyph unicode="$" d="M156 41l55 149q39 -23 112 -45q69 -20 173 -22v553q-59 29 -122 65q-62 36 -108 83q-48 50 -76 114q-28 65 -28 156q0 146 83 241q82 94 251 117v186h139v-180q108 -5 171 -19q65 -15 120 -40l-49 -144q-39 20 -99 36q-59 16 -143 20v-506q64 -34 127 -71q67 -40 114 -87 q51 -51 80 -115q31 -68 31 -153q0 -159 -89 -263q-88 -103 -263 -132v-189h-139v180q-110 1 -200 20q-89 18 -140 46zM332 1104q0 -88 56 -143q59 -58 140 -101v449q-109 -12 -152 -72q-44 -61 -44 -133zM602 127q96 15 155 73q60 58 60 165q0 51 -17 88q-18 40 -46 69 q-32 34 -68 56q-43 27 -84 47v-498z" />
<glyph unicode="%" horiz-adv-x="1583" d="M143 1110q0 89 25 158q23 64 66 108q42 43 101 63q57 19 126 19q67 0 126 -18q55 -17 100 -60q43 -42 67 -107q24 -66 24 -163t-24 -163q-24 -65 -67 -107q-45 -43 -100 -60q-59 -18 -126 -18t-126 18q-57 18 -101 60q-42 40 -66 107q-25 69 -25 163zM252 55l1053 1405 l100 -78l-1051 -1407zM295 1110q0 -123 44 -176t122 -53q41 0 69 11q34 13 53 37t32 69q12 44 12 112t-12 112q-13 45 -32 69t-53 37q-28 11 -69 11q-79 0 -122 -48q-44 -49 -44 -181zM874 352q0 89 25 158q23 62 67 108q42 44 100 63q57 19 126 19q68 0 126 -18 q57 -18 100 -59t67 -108q24 -66 24 -163t-24 -163q-24 -65 -67 -107q-43 -41 -100 -59q-62 -19 -126 -19t-126 19q-57 18 -100 59q-43 42 -67 107q-25 69 -25 163zM1026 352q0 -123 44 -176t122 -53q42 0 70 11q32 13 52 37q21 25 33 70q11 40 11 111q0 72 -11 112 q-12 45 -33 70q-19 23 -52 36q-30 12 -70 12q-78 0 -122 -48q-44 -49 -44 -182z" />
<glyph unicode="&#x26;" horiz-adv-x="1667" d="M242 383q0 83 28 157q28 75 78 138q54 69 112 117q69 57 130 94q-48 71 -85 147q-36 74 -36 160q0 51 16 96q16 46 53 84t92 60q56 22 136 22q84 0 141 -21q55 -20 92 -57t51 -77q15 -43 15 -89q0 -84 -67 -177q-65 -91 -210 -175q28 -52 77 -122q41 -59 93 -124 l101 -121q57 -67 102 -112q22 23 45 62q24 40 44 80q21 42 39 87q2 5 32 86l127 -59q-11 -32 -35 -83q-21 -45 -50 -98q-28 -51 -56 -97q-22 -36 -54 -76q52 -48 78 -71q32 -28 65 -51q30 -21 57 -39l56 -34l-102 -115q-105 51 -248 191q-33 -33 -81 -71q-39 -31 -99 -60 q-53 -26 -122 -43q-68 -17 -146 -17q-97 0 -182 27q-86 27 -148 79q-65 54 -101 128q-38 78 -38 174zM406 387q0 -66 26 -114q27 -50 73 -84t105 -52q60 -18 125 -18q54 0 100 13q49 14 91 34q46 22 79 47q36 27 58 55q-60 60 -117 129l-109 140q-58 77 -97 134 q-54 81 -74 113q-60 -44 -103 -84q-49 -46 -83 -91q-35 -47 -55 -103q-19 -54 -19 -119zM629 1196q0 -63 25 -122q24 -56 67 -120q107 68 150 127q42 57 42 101q0 66 -31 106q-32 41 -110 41q-74 0 -108 -37q-35 -38 -35 -96z" />
<glyph unicode="'" horiz-adv-x="446" d="M184 1038v396h160l-63 -396h-97z" />
<glyph unicode="(" horiz-adv-x="573" d="M123 498q0 112 18 237q17 117 60 251q39 123 107 247q63 115 163 225l98 -72q-81 -103 -136 -216q-53 -110 -87 -226q-32 -111 -46 -228q-13 -110 -13 -218q0 -98 15 -214q16 -120 49 -232q35 -117 88 -226q55 -112 130 -201l-104 -76q-94 98 -160 217q-64 115 -105 241 q-42 128 -59 250q-18 126 -18 241z" />
<glyph unicode=")" horiz-adv-x="573" d="M4 -379q80 102 137 217q55 111 87 228q31 114 45 227q14 117 14 217q0 96 -17 213q-17 121 -50 231q-34 117 -87 228q-51 109 -129 200l105 76q93 -97 159 -216q66 -118 106 -242q40 -123 58 -249q19 -133 19 -241q0 -107 -19 -238q-17 -121 -59 -250q-38 -118 -108 -247 q-64 -118 -163 -226z" />
<glyph unicode="*" horiz-adv-x="718" d="M82 1133v114h102l127 -24l-92 90l-53 94l100 57l51 -86l37 -114l43 116l49 82l99 -53l-53 -88l-95 -98l140 24h98v-114h-94l-131 24l94 -98l47 -80l-96 -57l-54 86l-47 125l-39 -119l-51 -86l-102 57l55 86l86 86l-119 -24h-102z" />
<glyph unicode="+" horiz-adv-x="1034" d="M82 618v148h360v369h148v-369h360v-148h-360v-368h-148v368h-360z" />
<glyph unicode="," horiz-adv-x="399" d="M86 -225q74 29 110 89q35 58 35 122q-18 -6 -34 -6q-42 0 -69 27q-28 28 -28 81q0 50 33 80q34 31 84 31q63 0 104 -45q39 -43 39 -131q0 -76 -20 -129q-22 -58 -53 -96t-72 -65q-40 -26 -78 -38z" />
<glyph unicode="-" horiz-adv-x="737" d="M121 514v152h495v-152h-495z" />
<glyph unicode="." horiz-adv-x="438" d="M100 94q0 55 32 87t85 32q54 0 88 -32q33 -31 33 -87q0 -53 -33 -86t-88 -33q-53 0 -85 33q-32 34 -32 86z" />
<glyph unicode="/" horiz-adv-x="724" d="M-76 -229l748 1687l129 -57l-748 -1688z" />
<glyph unicode="0" d="M88 717q0 369 120 555t349 186q248 0 359 -183q112 -185 112 -558q0 -369 -120 -555q-121 -187 -351 -187q-243 0 -356 195q-113 196 -113 547zM258 717q0 -140 17 -243q18 -110 55 -188q38 -81 93 -123q58 -44 134 -44q156 0 228 144q73 146 73 454q0 130 -15 241 q-15 112 -51 191q-35 78 -94 123q-56 43 -141 43q-154 0 -226 -146q-73 -148 -73 -452z" />
<glyph unicode="1" d="M143 1110l451 348h74v-1306h280v-152h-727v152h287v991l20 121l-82 -97l-225 -161z" />
<glyph unicode="2" d="M127 0v59l109 117q60 65 132 155q69 85 135 180q69 99 121 194q55 101 87 194t32 182q0 101 -57 167q-58 67 -174 67q-77 0 -152 -32q-73 -31 -127 -73l-67 117q73 62 170 96q100 35 211 35q89 0 155 -25q67 -25 115 -73t72 -112q24 -65 24 -140q0 -109 -40 -222 q-43 -121 -104 -229q-66 -116 -144 -224q-66 -91 -160 -208l-100 -88v-8l131 23h446v-152h-815z" />
<glyph unicode="3" d="M180 27l43 145q48 -23 112 -38q65 -15 144 -15q72 0 129 20q60 21 103 61t67 95q25 58 25 121q0 144 -85 213q-86 69 -235 69h-151v60l295 454l94 91l-133 -21h-406v152h731v-60l-325 -489l-72 -60v-4l70 15q78 -1 151 -30q70 -27 121 -80q52 -53 80 -125q29 -73 29 -165 q0 -110 -39 -196t-106 -145t-156 -89q-93 -31 -191 -31q-93 0 -166 15q-76 16 -129 37z" />
<glyph unicode="4" d="M41 440v68l680 948h110v-872h242v-144h-242v-440h-159v440h-631zM227 567l144 17h301v446l20 168h-6l-72 -139l-288 -391z" />
<glyph unicode="5" d="M158 16l43 140q51 -20 101 -28q54 -9 134 -9q143 0 234 82q92 83 92 237q0 151 -91 224t-251 73l-172 -10v709h639v-152h-486v-408l88 5q202 -1 320 -113q117 -111 117 -317q0 -115 -39 -204q-39 -88 -106 -149q-66 -60 -156 -90q-93 -31 -193 -31q-90 0 -156 11 q-69 12 -118 30z" />
<glyph unicode="6" d="M123 481q0 205 52 374q52 170 144 298q89 124 219 206q123 78 273 99l35 -131q-115 -21 -209 -78q-95 -57 -165 -141q-72 -86 -116 -188q-44 -104 -61 -215q32 54 111 101q77 46 190 46q192 0 302 -111q110 -112 110 -309q0 -93 -29 -177q-28 -82 -84 -145 q-56 -64 -137 -99q-82 -36 -187 -36q-101 0 -184 33q-81 32 -141 97q-59 64 -91 159q-32 96 -32 217zM283 461q0 -67 17 -125q19 -65 54 -110q38 -48 91 -78q52 -29 128 -29q61 0 108 22q48 23 83 62t54 94q20 57 20 119q0 145 -68 219t-209 74q-100 0 -173 -50t-101 -110 q-4 -25 -4 -47v-41z" />
<glyph unicode="7" d="M125 1282v152h856v-56l-590 -1378h-166l514 1200l90 100l-120 -18h-584z" />
<glyph unicode="8" d="M139 342q0 129 68 224q68 96 211 173q-50 30 -95 65q-46 36 -78 77q-35 43 -54 96q-19 51 -19 123q0 77 28 145q27 66 80 113q54 48 124 74q69 26 165 26q87 0 156 -24q70 -24 118 -68q49 -45 75 -102q26 -58 26 -131q0 -117 -53 -206q-53 -90 -176 -175q52 -30 101 -68 t84 -82t56 -101t21 -128q0 -88 -29 -161t-84 -125t-135 -82q-79 -30 -182 -30q-96 0 -174 29q-75 28 -128 78q-51 48 -79 116q-27 66 -27 144zM299 362q0 -50 16 -94t50 -78q33 -33 80 -52t112 -19q51 0 98 15t83 45q38 32 58 76q21 46 21 107q0 62 -24 108t-65 84 q-46 42 -91 69q-54 32 -107 59q-125 -69 -178 -156q-53 -86 -53 -164zM332 1104q0 -59 22 -102q22 -42 61 -78t87 -65q39 -23 102 -56q93 74 136 141q44 70 44 154q0 103 -64 160q-65 57 -155 57q-52 0 -98 -19q-43 -18 -74 -47q-32 -30 -46 -66q-15 -37 -15 -79z" />
<glyph unicode="9" d="M106 999q0 98 29 183q28 83 84 145q55 61 138 96q84 35 194 35q209 0 326 -135q116 -134 116 -381q0 -233 -52 -404q-53 -174 -144 -292q-93 -121 -218 -186q-128 -67 -274 -85l-37 131q117 18 214 70q95 52 164 129q68 77 112 177q42 96 59 216q-55 -65 -122 -91 q-65 -25 -175 -25q-84 0 -159 27q-72 26 -132 81q-57 52 -90 131q-33 78 -33 178zM276 1016q0 -146 77 -218q78 -73 202 -73q100 0 172 33t102 86q5 30 5 47v43q0 73 -18 142q-18 70 -52 123q-36 56 -91 85q-59 31 -132 31q-126 0 -195 -79q-70 -81 -70 -220z" />
<glyph unicode=":" horiz-adv-x="448" d="M186 94q0 55 32 87t85 32q54 0 88 -32q33 -31 33 -87q0 -53 -33 -86t-88 -33q-53 0 -85 33q-32 34 -32 86zM186 920q0 55 32 87q31 31 85 31q56 0 88 -31q33 -31 33 -87q0 -53 -33 -86t-88 -33q-53 0 -85 33q-32 34 -32 86z" />
<glyph unicode=";" horiz-adv-x="524" d="M168 -225q74 29 110 89q35 58 35 122q-18 -6 -34 -6q-42 0 -69 27q-28 28 -28 81q0 50 33 80q34 31 84 31q63 0 103 -45q40 -44 40 -131q0 -76 -20 -129q-22 -58 -53 -96t-72 -65q-40 -26 -78 -38zM197 920q0 56 31 87t85 31q56 0 88 -31q33 -31 33 -87q0 -53 -33 -86 t-88 -33q-53 0 -85 33q-31 32 -31 86z" />
<glyph unicode="&#x3c;" horiz-adv-x="1034" d="M86 625v59l774 473l78 -127l-485 -297l-187 -78l185 -65l497 -295l-78 -123z" />
<glyph unicode="=" horiz-adv-x="1034" d="M82 449v147h868v-147h-868zM82 788v148h868v-148h-868z" />
<glyph unicode="&#x3e;" horiz-adv-x="1034" d="M86 1032l78 125l784 -452v-60l-774 -473l-78 125l486 297l186 78l-184 65z" />
<glyph unicode="?" horiz-adv-x="892" d="M76 1356q83 49 164 75q86 27 213 27q90 0 158 -25q67 -25 115 -71q46 -45 69 -107q22 -60 22 -131q0 -91 -27 -160q-25 -64 -70 -125q-40 -55 -90 -106q-50 -52 -90 -103q-43 -56 -70 -118q-28 -65 -28 -150h-135q-2 14 -2 23v23q0 84 26 151q25 66 63 120q36 52 82 101 q42 45 82 96t64 102q25 53 25 124q0 93 -54 153t-181 60q-72 0 -150 -26q-74 -25 -131 -60zM266 94q0 55 32 87t85 32q54 0 88 -32q33 -31 33 -87q0 -53 -33 -86t-88 -33q-53 0 -85 33q-32 34 -32 86z" />
<glyph unicode="@" horiz-adv-x="2179" d="M178 483q0 223 77 404q75 177 208 307q129 126 305 196q171 68 369 68q185 0 342 -54t273 -156q117 -103 182 -248q67 -149 67 -332q0 -131 -45 -251q-45 -119 -122 -210q-78 -91 -179 -145q-102 -54 -217 -54q-88 0 -138 37q-51 38 -51 137q0 12 2 40q2 23 6 46h-8 q-30 -49 -67 -93t-87 -83q-42 -33 -103 -60q-54 -24 -113 -24q-48 0 -95 22q-43 20 -77 62t-53 97q-19 56 -19 128q0 132 43 258q43 125 116 226q70 97 170 158q99 61 205 61q75 0 121 -23q45 -23 88 -55l70 64h70l-105 -588q-10 -52 -15 -95q-5 -47 -5 -75q0 -52 17 -75 t60 -23q73 0 139 36q70 38 122 105t87 163q33 90 33 214q0 155 -53 278q-52 121 -149 204q-96 82 -230 126q-132 43 -293 43q-164 0 -312 -62q-144 -60 -254 -170q-106 -106 -170 -260q-62 -149 -62 -329q0 -185 56 -326q57 -144 161 -242t250 -149t323 -51q61 0 135 13 q75 13 138 44l41 -131q-89 -38 -170 -52t-168 -14q-189 0 -358 58q-166 57 -291 170q-122 110 -195 279q-72 166 -72 386zM795 344q0 -81 32 -136q32 -56 119 -56q43 0 85 26q45 28 87 73q43 46 82 103q43 62 70 117l61 334q-35 41 -69 56q-37 16 -89 16q-79 0 -149 -49 q-71 -49 -120 -125q-50 -77 -80 -172q-29 -91 -29 -187z" />
<glyph unicode="A" horiz-adv-x="1198" d="M16 0l543 1456h78l545 -1456h-178l-148 397h-528l-144 -397h-168zM383 545h422l-160 436l-51 217h-2l-51 -221z" />
<glyph unicode="B" horiz-adv-x="1196" d="M174 10v1411q96 15 176 21q107 8 219 8q84 0 163 -13q81 -13 151 -52q67 -37 111 -105t44 -174q0 -54 -16 -105q-17 -54 -49 -99q-33 -46 -84 -81q-52 -35 -121 -53v-8q59 -10 118 -35q54 -23 99 -68q43 -43 70 -104q26 -59 26 -145q0 -112 -46 -192q-47 -82 -121 -132 q-77 -53 -171 -76q-96 -24 -196 -24h-82q-47 0 -98 3q-37 2 -103 8q-51 5 -90 15zM344 145q15 -5 41 -6q8 0 27 -1.5t30 -2.5q20 -1 64 -3q22 -1 57 -1q65 0 127 15t109 50q48 36 74 83q28 51 28 116q0 85 -34 135q-35 52 -88 80q-54 28 -122 39q-64 10 -135 10h-178v-514z M344 803h107q18 0 84 2q48 1 81 6q52 17 93 40q40 22 76 55q34 31 54 74q19 41 19 91q0 69 -25 112t-69 70q-42 26 -98 38t-113 12q-48 0 -124 -4q-56 -3 -85 -9v-487z" />
<glyph unicode="C" horiz-adv-x="1169" d="M115 717q0 200 54 341q53 139 143 229t200 130q112 41 225 41q126 0 201 -13q77 -13 133 -36l-41 -149q-100 47 -280 47q-81 0 -166 -31q-81 -29 -147 -100q-63 -67 -103 -183q-39 -113 -39 -276q0 -148 37 -258q38 -114 101 -185q63 -72 152 -110q86 -37 189 -37 q92 0 161 18q66 17 116 48l41 -134q-62 -47 -156 -65q-100 -19 -201 -19q-127 0 -241 44q-111 43 -197 135q-84 90 -133 230t-49 333z" />
<glyph unicode="D" horiz-adv-x="1339" d="M174 -2v1436q39 6 87 9q34 2 100 4l103 2q33 1 93 1q171 0 298 -53q122 -51 208 -149q81 -93 122 -228q40 -132 40 -293q0 -145 -38 -280q-37 -133 -120 -237q-82 -103 -213 -166q-128 -62 -317 -62q-50 0 -85 1q-72 2 -108 4q-78 4 -102 5q-47 2 -68 6zM344 141 q10 -1 39 -3l59 -2l60 -2q19 -1 39 -1q143 0 240 49q97 50 156 132q59 83 83 191t24 222q0 102 -22 202t-78 183q-55 81 -148 134q-92 52 -235 52h-58q-23 0 -63 -2q-11 -1 -30 -2.5t-26 -1.5q-8 0 -15 -1t-14.5 -2t-10.5 -1v-1147z" />
<glyph unicode="E" horiz-adv-x="1097" d="M174 0v1434h780v-152h-610v-469h559v-151h-559v-510h621v-152h-791z" />
<glyph unicode="F" horiz-adv-x="1058" d="M174 0v1434h780v-152h-610v-489h569v-152h-569v-641h-170z" />
<glyph unicode="G" horiz-adv-x="1253" d="M115 717q0 199 57 340q56 139 150 230q93 90 206 130q115 41 230 41q126 0 203 -13q79 -13 135 -36l-43 -149q-100 47 -281 47q-86 0 -171 -30q-84 -29 -152 -99q-67 -68 -111 -183q-43 -111 -43 -278q0 -149 35 -262t97 -184q63 -72 151 -108t192 -36q132 0 223 51v400 l-336 40v97h482v-631q-34 -25 -79 -45q-42 -19 -98 -35q-43 -12 -109 -21q-61 -8 -110 -8q-136 0 -251 44q-114 44 -199 136q-86 93 -131 231q-47 143 -47 331z" />
<glyph unicode="H" horiz-adv-x="1376" d="M174 0v1434h170v-625h688v625h170v-1434h-170v657h-688v-657h-170z" />
<glyph unicode="I" horiz-adv-x="595" d="M213 0v1434h170v-1434h-170z" />
<glyph unicode="J" horiz-adv-x="595" d="M-70 12l33 146q57 -27 125 -27q87 0 114 60t27 165v1078h170v-1119q0 -163 -72 -249t-221 -86q-8 0 -40 2q-27 2 -50 6q-32 6 -48 10q-20 5 -38 14z" />
<glyph unicode="K" horiz-adv-x="1249" d="M174 0v1434h170v-668l92 29l482 639h196l-479 -617l-86 -67l104 -82l525 -668h-215l-523 664h-96v-664h-170z" />
<glyph unicode="L" horiz-adv-x="1058" d="M174 0v1434h170v-1282h678v-152h-848z" />
<glyph unicode="M" horiz-adv-x="1619" d="M174 0v1434h127l449 -734l67 -159h4l64 164l428 729h133v-1434h-170v963l20 215h-10l-78 -197l-372 -647h-52l-395 649l-74 195h-10l29 -213v-965h-160z" />
<glyph unicode="N" horiz-adv-x="1378" d="M174 0v1456h90l686 -956l107 -197h10l-23 197v934h160v-1457h-90l-682 961l-110 207h-9l21 -207v-938h-160z" />
<glyph unicode="O" horiz-adv-x="1400" d="M115 717q0 359 151 550t432 191q151 0 263 -53q110 -52 183 -151t107 -233q35 -138 35 -304q0 -359 -152 -550q-153 -192 -436 -192q-146 0 -259 54q-110 53 -182 150q-73 99 -107 234q-35 138 -35 304zM295 717q0 -123 23 -225q24 -109 73 -188q49 -81 126 -129t181 -48 q191 0 299 144q109 145 109 446q0 116 -24 224t-73 188t-127 129t-184 49q-187 0 -296 -145q-107 -143 -107 -445z" />
<glyph unicode="P" horiz-adv-x="1144" d="M174 0v1419q84 19 168 25q90 6 178 6q94 0 192 -18q96 -18 177 -68t130 -135q50 -86 50 -219q0 -131 -47 -222q-45 -88 -125 -146q-78 -57 -178 -81q-101 -24 -207 -24h-34q-32 0 -49 1q-34 2 -50 3q-12 1 -35 4v-545h-170zM344 696q8 -3 33 -5l47 -2q16 -1 47 -1h33 q72 0 138 13t124 49q54 33 89 98q34 62 34 162q0 82 -32 140q-30 55 -84 90q-49 32 -118 48q-66 15 -131 15q-3 0 -102 -3q-45 -1 -78 -10v-594z" />
<glyph unicode="Q" horiz-adv-x="1400" d="M115 717q0 359 151 550t432 191q151 0 263 -53q110 -52 183 -151t107 -233q35 -138 35 -304q0 -359 -152 -550q-153 -192 -436 -192q-146 0 -259 54q-110 53 -182 150q-73 99 -107 234q-35 138 -35 304zM295 717q0 -123 23 -225q24 -109 73 -188q49 -81 126 -129t181 -48 q191 0 299 144q109 145 109 446q0 116 -24 224t-73 188t-127 129t-184 49q-187 0 -296 -145q-107 -143 -107 -445zM434 -100q19 4 55 10q24 4 56 4q81 0 171 -22q67 -16 173 -47q97 -28 180 -47q91 -21 195 -21q94 0 178 20v-147q-52 -16 -96 -20q-52 -5 -95 -5 q-97 0 -199 22q-90 19 -189 47l-175 47q-84 21 -160 21q-49 0 -94 -12v150z" />
<glyph unicode="R" horiz-adv-x="1218" d="M174 0v1419q83 16 179 23q109 8 186 8q98 0 179 -20q83 -20 149 -68q65 -47 104 -123q39 -77 39 -184q0 -167 -92 -273q-91 -104 -234 -139l98 -76l357 -567h-199l-395 618l-201 31v-649h-170zM344 762h160q142 0 233 69q92 69 92 218q0 111 -75 182q-77 72 -211 72h-56 q-1 0 -55 -3q-10 -1 -26.5 -2.5t-23.5 -1.5q-23 -1 -38 -6v-528z" />
<glyph unicode="S" horiz-adv-x="1087" d="M94 51l58 154q44 -26 139 -52q93 -26 207 -26q69 0 127 13q59 13 102 43t69 75q25 44 25 107q0 86 -51 140q-50 53 -128 96q-71 39 -167 79q-95 40 -167 89q-77 53 -128 129t-51 196q0 167 117 266q116 98 332 98q125 0 227 -18t160 -47l-52 -150q-45 22 -138 43 q-92 21 -206 21q-133 0 -202 -61q-68 -60 -68 -142q0 -80 51 -133t128 -95q79 -44 167 -83q86 -38 167 -96q78 -55 128 -130q51 -77 51 -188q0 -93 -33 -166q-34 -75 -96 -127q-65 -54 -153 -82q-92 -29 -205 -29q-153 0 -254 24q-102 24 -156 52z" />
<glyph unicode="T" horiz-adv-x="1136" d="M37 1282v152h1063v-152h-447v-1282h-170v1282h-446z" />
<glyph unicode="U" horiz-adv-x="1335" d="M174 444v990h170v-910q0 -104 22 -183q21 -75 64 -121q41 -44 108 -66q64 -21 150 -21q166 0 238 91q71 90 71 300v910h164v-957q0 -130 -34 -223q-36 -97 -96 -155q-65 -61 -150 -89q-87 -28 -195 -28q-254 0 -383 114t-129 348z" />
<glyph unicode="V" horiz-adv-x="1163" d="M-4 1434h186l365 -985l49 -218h2l53 222l346 981h170l-542 -1457h-76z" />
<glyph unicode="W" horiz-adv-x="1695" d="M16 1434h181l258 -961l32 -237h2l35 241l295 957h82l297 -961l35 -237h2l37 241l241 957h166l-399 -1457h-94l-291 961l-37 217h-10l-37 -219l-291 -959h-94z" />
<glyph unicode="X" horiz-adv-x="1265" d="M53 0l477 729l-436 705h205l291 -486l51 -117l49 117l307 486h189l-451 -691l471 -743h-198l-324 514l-55 123l-54 -123l-331 -514h-191z" />
<glyph unicode="Y" horiz-adv-x="1142" d="M16 1434h199l336 -627l35 -125h2l37 129l321 623h182l-469 -863v-571h-170v569z" />
<glyph unicode="Z" d="M78 0v154l723 1046l86 82h-809v152h962v-154l-727 -1053l-86 -75h813v-152h-962z" />
<glyph unicode="[" horiz-adv-x="622" d="M174 -471v1905h371v-144h-211v-1618h211v-143h-371z" />
<glyph unicode="\" horiz-adv-x="778" d="M-76 1401l137 57l756 -1685l-135 -60z" />
<glyph unicode="]" horiz-adv-x="622" d="M78 -328h213v1618h-213v144h373v-1905h-373v143z" />
<glyph unicode="^" horiz-adv-x="1024" d="M98 891l381 565h60l346 -565h-168l-164 276l-47 142l-64 -144l-188 -274h-156z" />
<glyph unicode="_" horiz-adv-x="835" d="M0 -276h836v-144h-836v144z" />
<glyph unicode="`" horiz-adv-x="573" d="M123 1432v43h194l134 -306h-93z" />
<glyph unicode="a" horiz-adv-x="1015" d="M80 274q0 92 37 151q38 60 103 96q66 36 160 51q99 16 206 16h56q31 0 56 -4q7 72 7 110q0 112 -46 158q-45 45 -163 45q-30 0 -75 -5q-35 -4 -82 -14q-40 -9 -80 -23q-37 -13 -66 -30l-52 123q80 48 182 70q101 22 216 22q108 0 171 -28t98 -75q33 -44 45 -101 q11 -51 11 -111q0 -123 -6 -240t-6 -221q0 -76 6 -143q6 -66 23 -125h-121l-43 143h-10q-15 -24 -47 -56q-29 -29 -66 -49q-39 -21 -90 -36q-48 -14 -117 -14q-68 0 -122 20q-57 21 -97 58t-65 92q-23 50 -23 120zM250 291q0 -71 51 -118q50 -46 131 -46q58 0 103 15 q43 14 77 39q36 26 55 52q20 27 31 56v170q-38 2 -58 3t-58 1q-68 0 -124 -7q-61 -8 -107 -27q-47 -20 -73 -53q-28 -36 -28 -85z" />
<glyph unicode="b" horiz-adv-x="1105" d="M158 59v1375h164v-510h8q44 57 120 92q72 33 158 33q199 0 298 -127q100 -129 100 -394q0 -266 -132 -407q-130 -139 -368 -139q-115 0 -208 24q-92 24 -140 53zM322 170q38 -22 94 -34q51 -11 114 -11q141 0 223 98q83 100 83 307q0 81 -15 150q-15 70 -45 119 q-29 49 -79 78q-47 28 -117 28q-103 0 -166 -57q-64 -58 -92 -162v-516z" />
<glyph unicode="c" horiz-adv-x="923" d="M100 512q0 259 115 398t330 139q93 0 167 -16q66 -14 124 -44l-48 -141q-46 27 -104 42q-57 15 -123 15q-291 0 -291 -393q0 -73 16 -148q15 -71 51 -125t94 -87q59 -33 144 -33q76 0 133 22q54 21 95 52l53 -125q-62 -45 -145 -69q-84 -24 -176 -24q-117 0 -201 38 q-80 36 -134 109q-52 69 -76 170q-24 99 -24 220z" />
<glyph unicode="d" horiz-adv-x="1101" d="M100 508q0 262 124 398t341 136q74 0 120 -8q42 -7 95 -26v426h164v-1082q0 -75 2 -189q1 -79 19 -167h-111l-41 145h-8q-40 -71 -119 -118q-81 -48 -182 -48q-205 0 -304 129q-100 130 -100 404zM270 508q0 -81 14 -156q13 -71 44 -123q29 -50 81 -81q48 -29 121 -29 q104 0 166 54t84 165v508q-38 29 -84 41q-47 12 -125 12q-141 0 -221 -93q-80 -94 -80 -298z" />
<glyph unicode="e" horiz-adv-x="1040" d="M100 512q0 262 117 399q118 138 334 138q65 0 139 -16q71 -15 125 -58q56 -44 90 -122q35 -81 35 -208q0 -67 -12 -149h-658q0 -87 19 -160q18 -70 57 -118q40 -49 101 -74q62 -25 153 -25q70 0 139 24q70 24 105 58l61 -119q-62 -50 -154 -78q-95 -29 -198 -29 q-116 0 -203 38q-84 37 -141 109q-55 70 -82 169t-27 221zM272 625h508q0 156 -59 218t-168 62q-122 0 -194 -63t-87 -217z" />
<glyph unicode="f" horiz-adv-x="653" d="M45 881v143h160v57q0 95 15 164q15 70 50 114t90 65q58 22 138 22q62 0 115 -8q47 -7 106 -31l-37 -137q-43 19 -89 26q-49 7 -79 7q-52 0 -83 -17q-29 -16 -43 -48q-13 -30 -16 -78q-3 -46 -3 -107v-29h272v-143h-272v-881h-164v881h-160z" />
<glyph unicode="g" horiz-adv-x="1099" d="M100 508q0 261 125 398q124 136 369 136q118 0 200 -18q74 -16 148 -43v-1028q0 -198 -105 -293q-104 -94 -313 -94q-122 0 -197 15q-72 14 -128 40l43 139q40 -15 104 -34q59 -17 150 -17q82 0 140 16q54 15 87 51t45 92q12 57 12 134v98h-8q-40 -59 -104 -91t-166 -32 q-206 0 -304 129q-98 130 -98 402zM270 510q0 -86 15 -158t45 -123q29 -50 80 -79q50 -29 120 -29q105 0 164 52q60 53 84 163v524q-82 39 -209 39q-140 0 -219 -94q-80 -95 -80 -295z" />
<glyph unicode="h" horiz-adv-x="1120" d="M158 0v1434h164v-525h8q54 65 128 102q76 38 185 38q85 0 150 -20q64 -20 105 -68t61 -133t20 -210v-618h-164v584q0 80 -9 140q-9 57 -34 100q-24 40 -66 61q-40 20 -110 20q-97 0 -174 -62q-78 -63 -100 -161v-682h-164z" />
<glyph unicode="i" horiz-adv-x="548" d="M158 1335q0 47 31 81t81 34t84 -34q35 -35 35 -81q0 -48 -35 -78q-34 -30 -84 -30t-81 30t-31 78zM193 0v1024h163v-1024h-163z" />
<glyph unicode="j" horiz-adv-x="546" d="M18 -291q58 0 92 18q35 18 52 54q19 39 23 93q5 63 5 132v1018h164v-1079q0 -192 -65 -285q-66 -94 -209 -94q-21 0 -31 1q-20 2 -31 3v139zM156 1335q0 47 31 81t81 34t84 -34q35 -35 35 -81q0 -48 -35 -78q-34 -30 -84 -30t-81 30t-31 78z" />
<glyph unicode="k" horiz-adv-x="980" d="M158 0v1434h164v-873l84 29l317 434h190l-313 -412l-84 -67l102 -82l343 -463h-203l-342 461h-94v-461h-164z" />
<glyph unicode="l" horiz-adv-x="598" d="M176 205v1229h164v-1182q0 -71 25 -102t69 -31q31 0 58 4q36 5 69 18l19 -129q-30 -15 -92 -26q-61 -11 -101 -11q-90 0 -151 53q-60 52 -60 177z" />
<glyph unicode="m" horiz-adv-x="1662" d="M158 0v1024h114l31 -125h8q55 65 128 108q72 42 190 42q97 0 161 -38q62 -37 97 -132q46 79 130 125q83 45 187 45q84 0 146 -20q60 -19 98 -68q37 -48 56 -134q18 -84 18 -213v-614h-164v616q0 78 -7 128q-8 54 -29 91q-20 34 -59 53q-35 17 -100 17q-102 0 -159 -57 q-58 -58 -82 -164v-684h-164v580q0 86 -7 142q-8 62 -28 101q-22 42 -58 62t-100 20q-93 0 -156 -57t-87 -143v-705h-164z" />
<glyph unicode="n" horiz-adv-x="1120" d="M158 0v1024h114l31 -125h8q49 66 132 108t198 42q82 0 147 -20q66 -20 106 -68q42 -49 63 -133q22 -86 22 -210v-618h-164v584q0 160 -46 240q-47 81 -169 81q-109 0 -179 -58q-71 -59 -99 -147v-700h-164z" />
<glyph unicode="o" horiz-adv-x="1097" d="M100 512q0 259 116 398t333 139q113 0 200 -38q83 -36 140 -109q55 -69 82 -170q26 -95 26 -220q0 -261 -115 -398q-116 -139 -333 -139q-113 0 -200 38q-83 36 -140 109q-55 69 -82 170q-27 99 -27 220zM270 512q0 -73 16 -150q15 -71 48 -124t86 -86q52 -33 129 -33h3 q138 0 206 97q69 98 69 296q0 80 -15 152q-15 71 -48 124q-34 54 -86 85q-53 32 -129 32h-3q-138 0 -206 -97q-70 -98 -70 -296z" />
<glyph unicode="p" horiz-adv-x="1107" d="M158 -410v1434h112l31 -123h8q47 72 122 110q76 38 171 38q205 0 305 -121q101 -122 101 -396q0 -130 -34 -232q-35 -105 -95 -175q-61 -72 -149 -111q-87 -39 -193 -39q-72 0 -120 10q-47 10 -95 31v-426h-164zM322 178q39 -29 84 -44q47 -15 124 -15q142 0 225 105 q83 106 83 311q0 83 -15 152q-15 70 -46 117t-82 75q-48 26 -124 26q-104 0 -164 -54q-61 -55 -85 -165v-508z" />
<glyph unicode="q" horiz-adv-x="1099" d="M100 508q0 265 127 399q127 135 371 135q114 0 204 -20q97 -22 140 -43v-1389h-164v512h-8q-40 -61 -103 -94t-165 -33q-204 0 -303 130t-99 403zM270 510q0 -87 15 -159q15 -74 45 -124q30 -51 80 -80q49 -28 120 -28q103 0 164 53q60 52 84 164v524q-77 39 -209 39 q-140 0 -220 -95q-79 -94 -79 -294z" />
<glyph unicode="r" horiz-adv-x="696" d="M158 0v1024h114l31 -125h8q40 71 93 108t139 37q63 0 133 -20l-35 -158q-61 21 -117 21q-88 0 -139 -48t-63 -122v-717h-164z" />
<glyph unicode="s" horiz-adv-x="862" d="M80 51l49 139q45 -26 123 -49q75 -22 154 -22q87 0 145 35q57 34 57 125q0 62 -37 96t-91 58q-53 23 -119 45q-62 20 -118 56q-53 34 -91 87q-37 52 -37 143q0 147 84 216t233 69q108 0 185 -20q78 -20 131 -46l-39 -135q-42 20 -114 40q-62 17 -142 17q-89 0 -132 -31 q-42 -30 -42 -106q0 -54 36 -83q34 -27 92 -53q51 -22 118 -46q66 -23 119 -60q55 -38 91 -93q37 -56 37 -148q0 -66 -21 -123q-21 -58 -67 -99q-43 -39 -112 -64q-66 -24 -156 -24q-115 0 -199 23q-79 21 -137 53z" />
<glyph unicode="t" horiz-adv-x="694" d="M23 881v143h159v203l164 47v-250h279v-143h-279v-568q0 -107 27 -150q27 -44 90 -44q56 0 90 11q35 11 82 30l37 -125q-54 -26 -121 -43q-68 -17 -141 -17q-126 0 -177 71q-51 70 -51 237v598h-159z" />
<glyph unicode="u" horiz-adv-x="1103" d="M141 406v618h164v-584q0 -80 9 -140q9 -58 32 -100q22 -39 62 -61q37 -20 98 -20q57 0 98 17q42 17 77 48q32 27 59 71q26 41 42 85v684h164v-733q0 -65 5 -153q4 -67 18 -138h-113l-41 162h-10q-47 -80 -127 -133q-82 -54 -203 -54q-79 0 -144 20q-64 20 -105 68 q-42 49 -63 133q-22 86 -22 210z" />
<glyph unicode="v" horiz-adv-x="987" d="M18 1024h189l246 -600l57 -195h2l51 199l230 596h176l-437 -1047h-69z" />
<glyph unicode="w" horiz-adv-x="1505" d="M16 1024h179l202 -596l35 -199h2l49 203l219 592h119l236 -598l51 -197h4l39 201l182 594h156l-344 -1047h-80l-268 676l-39 168h-6l-41 -170l-258 -674h-80z" />
<glyph unicode="x" horiz-adv-x="1054" d="M57 0l369 524l-344 500h201l194 -283l58 -116l59 116l199 283h184l-346 -492l366 -532h-194l-217 311l-62 123l-63 -123l-221 -311h-183z" />
<glyph unicode="y" horiz-adv-x="954" d="M25 1024h188l246 -664l57 -196h10l45 198l199 662h166l-303 -920l-69 -194q-34 -94 -75 -168q-41 -75 -92 -118q-52 -44 -118 -44q-74 0 -121 21l28 141q26 -10 52 -10q58 0 110 60q54 61 88 208z" />
<glyph unicode="z" horiz-adv-x="915" d="M86 0v143l473 652l86 86h-559v143h729v-143l-477 -658l-84 -80h561v-143h-729z" />
<glyph unicode="{" horiz-adv-x="708" d="M117 410v143q77 0 121 41q43 40 43 131v496q0 95 48 155t146 60h174v-144h-102q-55 0 -81 -27q-26 -28 -26 -94v-485q0 -91 -43 -137q-44 -47 -100 -57v-13q55 -7 99 -62t44 -141v-483q0 -62 25 -92q24 -29 84 -29h100v-143h-174q-92 0 -143 54t-51 159v487 q0 106 -43 143q-44 38 -121 38z" />
<glyph unicode="|" horiz-adv-x="487" d="M174 -266v1700h139v-1700h-139z" />
<glyph unicode="}" horiz-adv-x="708" d="M113 -328h102q55 0 81 28t26 93v486q0 91 42 137t99 57v12q-53 7 -98 63q-43 53 -43 140v483q0 63 -25 93q-24 28 -82 28h-102v144h176q89 0 141 -55q51 -54 51 -158v-488q0 -105 43 -142q44 -38 121 -38v-143q-77 0 -121 -41q-43 -40 -43 -131v-496q0 -96 -48 -156 q-47 -59 -146 -59h-174v143z" />
<glyph unicode="~" horiz-adv-x="1034" d="M63 739q90 69 160 95q69 26 131 26q60 0 107 -17t94 -39q49 -23 88 -39q41 -17 90 -17q41 0 80 16q42 17 88 57l70 -125q-79 -53 -141 -74q-66 -22 -113 -22q-58 0 -102 17t-88 39q-42 21 -84 39t-91 18q-45 0 -100 -22q-50 -20 -119 -75z" />
<glyph unicode="&#xa1;" horiz-adv-x="622" d="M152 928q0 56 31 87q32 32 85 32q54 0 88 -32q33 -31 33 -87q0 -53 -33 -86t-88 -33q-54 0 -85 33q-31 32 -31 86zM190 301l35 361h101l34 -361v-711h-170v711z" />
<glyph unicode="&#xa2;" d="M178 512q0 236 97 372q97 135 278 158v187h145v-182q69 -4 127 -20q54 -15 101 -38l-47 -139q-33 17 -92 35q-42 13 -103 18v-784q68 5 119 25q52 21 88 49l53 -125q-55 -38 -111 -57q-65 -22 -135 -29v-187h-145v185q-104 11 -173 52q-72 43 -116 110t-65 163 q-21 95 -21 207zM348 512q0 -72 11 -130q12 -65 38 -115q26 -51 70 -89q41 -36 106 -51v772q-225 -43 -225 -387z" />
<glyph unicode="&#xa3;" d="M86 0v147q66 0 112 24q45 23 75 61q28 35 44 86q15 48 15 98q0 66 -14 122q-15 61 -33 103h-199v143h135q-24 53 -41 117q-16 61 -16 150q0 200 115 304q113 103 313 103q126 0 217 -18t152 -47l-54 -146q-48 23 -126 41q-84 19 -191 19q-123 0 -190 -67 q-66 -66 -66 -179q0 -89 20 -152q21 -66 49 -125h330v-143h-268q16 -46 27 -98q10 -49 10 -113q0 -58 -19 -126q-18 -65 -55 -105l-80 -68v-8l127 29h524v-152h-913z" />
<glyph unicode="&#xa4;" d="M43 293l158 160l69 45q-63 86 -63 209q0 62 17 112q20 57 46 99l-69 43l-158 159l100 101l160 -158l43 -72q86 68 211 68q120 0 211 -68l45 72l160 158l100 -101l-158 -159l-71 -46q65 -87 65 -208q0 -124 -65 -211l71 -43l158 -160l-100 -98l-160 157l-43 68 q-90 -64 -213 -64q-126 0 -211 64l-43 -68l-160 -157zM348 707q0 -92 59 -154q58 -61 150 -61t152 61q59 60 59 154q0 92 -59 154q-60 63 -152 63q-91 0 -150 -63q-59 -64 -59 -154z" />
<glyph unicode="&#xa5;" d="M4 1434h199l336 -627l34 -125h2l37 129l322 623h182l-416 -762h193v-123h-248v-129h248v-123h-248v-297h-170v297h-248v123h248v129h-248v123h193z" />
<glyph unicode="&#xa6;" horiz-adv-x="487" d="M174 -266v688h139v-688h-139zM174 745v689h139v-689h-139z" />
<glyph unicode="&#xa7;" horiz-adv-x="1017" d="M117 723q0 65 31 124t85 107l84 29q-53 33 -89 83q-35 48 -35 134q0 114 85 186q86 72 236 72q110 0 187 -18q78 -18 133 -45l-39 -138q-47 21 -117 40q-68 18 -141 18q-93 0 -137 -33t-44 -88q0 -53 40 -83q39 -29 102 -52q57 -21 131 -45q68 -22 131 -59 q60 -35 101 -94q40 -58 40 -150q0 -61 -31 -123q-29 -59 -84 -107l-92 -28q56 -33 93 -84q38 -52 38 -136q0 -63 -24 -111q-23 -46 -69 -81q-43 -32 -103 -49q-62 -17 -127 -17q-114 0 -189 20t-131 48l41 133q42 -20 114 -40q62 -17 144 -17q87 0 133 27q48 28 48 94 q0 54 -40 84q-42 31 -102 53q-57 21 -131 45q-72 23 -131 58q-60 35 -101 93q-40 56 -40 150zM281 727q0 -52 26 -84q25 -31 69 -56q40 -23 96 -40q63 -19 110 -37q30 12 56 33q30 23 50 46q23 26 36 55t13 63q0 52 -26 84q-25 31 -71 56q-39 22 -99 41q-74 24 -111 38 q-59 -27 -104 -76q-45 -50 -45 -123z" />
<glyph unicode="&#xa8;" horiz-adv-x="841" d="M123 1337q0 46 28 76q27 29 72 29q46 0 73 -29q28 -30 28 -76q0 -41 -28 -71q-27 -29 -73 -29q-45 0 -72 29q-28 30 -28 71zM516 1337q0 46 28 76q27 29 72 29q48 0 75 -29q28 -30 28 -76q0 -41 -28 -71q-27 -29 -75 -29q-45 0 -72 29q-28 30 -28 71z" />
<glyph unicode="&#xa9;" horiz-adv-x="1650" d="M104 594q0 168 58 304q58 137 155 226q100 93 230 142q129 49 278 49q150 0 279 -49q128 -48 229 -142q98 -91 156 -226q57 -133 57 -304q0 -170 -57 -304q-58 -137 -156 -227q-99 -92 -229 -141q-129 -49 -279 -49q-165 0 -297 49t-227 141q-92 90 -145 227 q-52 136 -52 304zM248 594q0 -142 45 -251t123 -183q79 -74 183 -113q105 -39 226 -39q122 0 227 39q104 39 183 113q78 74 123 183t45 251t-45 251t-123 183q-79 74 -183 113q-105 39 -227 39q-121 0 -226 -39q-104 -39 -183 -113q-78 -74 -123 -183t-45 -251zM481 594 q0 186 93 288q92 101 247 101q40 0 67 -4q36 -5 55 -11q27 -8 50 -18l56 -22l-54 -125q-48 24 -86 31q-43 8 -69 8q-85 0 -141 -54q-54 -52 -54 -194q0 -118 53 -183q53 -66 158 -67q97 0 164 37l43 -121q-43 -25 -106 -41q-55 -14 -136 -14q-167 0 -253 104 q-87 105 -87 285z" />
<glyph unicode="&#xaa;" horiz-adv-x="790" d="M98 965q0 61 31 106q29 42 83 70q52 27 123 39q70 12 152 12q19 0 28 -1t28 -1q2 16 2 23v22q0 55 -25 78q-23 22 -94 22q-82 0 -150 -15q-67 -15 -106 -36l-31 102q54 29 135 46q84 18 187 18q127 0 174 -53t47 -154q0 -77 -3 -149t-3 -138q0 -49 3 -94q3 -47 13 -84 h-112l-27 94h-8q-26 -33 -76 -68q-49 -34 -137 -34q-108 0 -170 52q-64 53 -64 143zM242 975q0 -43 29 -66q30 -24 83 -24q45 0 75 10q33 11 54 28q24 19 37 36q16 20 23 38v86q-30 2 -43 2h-43q-47 0 -82 -4q-41 -5 -69 -16q-27 -11 -47 -34q-17 -20 -17 -56z" />
<glyph unicode="&#xab;" horiz-adv-x="978" d="M80 530l328 471l110 -88l-201 -297l-98 -84l98 -73l213 -291l-110 -90zM455 530l323 467l109 -86l-199 -295l-98 -84l98 -73l211 -289l-106 -88z" />
<glyph unicode="&#xac;" horiz-adv-x="1034" d="M84 655v148h868v-393h-147v245h-721z" />
<glyph unicode="&#xad;" horiz-adv-x="737" d="M121 514v152h495v-152h-495z" />
<glyph unicode="&#xae;" horiz-adv-x="1433" d="M174 924q0 131 43 232t118 170q76 70 173 105q96 35 209 35q116 0 212 -35q100 -36 173 -105q75 -70 116 -170q42 -102 42 -232q0 -132 -43 -233t-118 -170q-74 -68 -173 -104t-209 -36q-114 0 -213 36q-100 36 -172 104q-75 70 -116 170q-42 102 -42 233zM303 924 q0 -106 33 -186q33 -79 89 -131q57 -53 132 -79q74 -26 160 -26q89 0 164 25t131 78t87 131t31 188q0 108 -32 185q-33 79 -89 131q-57 52 -131 79q-75 27 -161 27q-89 0 -166 -27q-76 -27 -131 -79q-57 -54 -86 -131q-31 -82 -31 -185zM506 659v531q33 11 92 15q67 5 113 5 q87 0 147 -35q62 -36 62 -124q0 -67 -42 -101t-104 -39l57 -28l152 -224h-125l-147 213l-99 31v-244h-106zM612 965h70q59 0 92 18t33 64q0 71 -119 71q-29 0 -43 -1q-22 -2 -33 -7v-145z" />
<glyph unicode="&#xaf;" horiz-adv-x="851" d="M123 1190v127h606v-127h-606z" />
<glyph unicode="&#xb0;" horiz-adv-x="870" d="M174 1169q0 63 23 117q24 55 61 91q41 40 92 60q52 21 113 21t112 -19q53 -20 93 -58q37 -36 61 -91q23 -54 23 -121q0 -66 -23 -120q-24 -57 -61 -92q-38 -37 -93 -57q-51 -19 -112 -19q-62 0 -113 19q-53 20 -92 57q-37 35 -61 92q-23 54 -23 120zM303 1169 q0 -77 48 -121q49 -44 112 -44q62 0 111 44t49 121q0 78 -49 122t-111 44q-63 0 -112 -44q-48 -43 -48 -122z" />
<glyph unicode="&#xb1;" horiz-adv-x="1034" d="M82 365v147h868v-147h-868zM82 864v148h360v368h148v-368h360v-148h-360v-248h-148v248h-360z" />
<glyph unicode="&#xb2;" horiz-adv-x="806" d="M98 778v68q66 56 118 104q70 66 136 142q66 77 112 155q46 79 46 148q0 63 -41 95t-100 32q-54 0 -108 -20q-49 -18 -91 -44l-45 117q48 34 124 57q71 21 144 21q128 0 195 -64q65 -62 65 -176q0 -63 -21 -123q-19 -54 -58 -116q-37 -59 -85 -114q-58 -67 -104 -114 l-94 -65v-4l117 30h286v-129h-596z" />
<glyph unicode="&#xb3;" horiz-adv-x="808" d="M137 803l31 123q32 -15 80 -28q41 -11 98 -11q98 0 151 39q52 39 52 114q0 66 -47 107t-152 41h-112v47l198 238l70 55l-100 -12h-267v122h525v-67l-211 -252l-52 -37v-4l48 6q113 -2 178 -67t65 -177q0 -124 -91 -200t-243 -76q-74 0 -127 12q-55 13 -94 27z" />
<glyph unicode="&#xb4;" horiz-adv-x="548" d="M123 1169l121 306h182v-43l-207 -263h-96z" />
<glyph unicode="&#xb6;" horiz-adv-x="1011" d="M76 1036q0 79 23 148q24 71 69 127q44 54 111 89q65 34 147 34h92v-1700h-139v901q-66 0 -121 34q-56 35 -95 90q-40 56 -64 129q-23 69 -23 148zM698 -266v1700h140v-1700h-140z" />
<glyph unicode="&#xb7;" horiz-adv-x="546" d="M156 606q0 56 31 87q32 32 85 32q54 0 88 -32q33 -31 33 -87q0 -53 -33 -86t-88 -33q-54 0 -85 33q-31 32 -31 86z" />
<glyph unicode="&#xb8;" horiz-adv-x="587" d="M123 -418l14 101q4 -1 12 -2.5t11 -1.5q11 -2 47 -3q24 0 48 3q23 3 37 14q12 10 17 22q4 11 4 25q1 30 -43 49t-133 27l99 184h116l-49 -88q88 -17 124 -53q38 -38 38 -101q0 -84 -68 -134t-182 -50q-15 0 -45 2q-23 2 -47 6z" />
<glyph unicode="&#xb9;" horiz-adv-x="806" d="M109 1444l315 209h84v-750h194v-125h-555v125h218v520l14 74l-55 -57l-160 -97z" />
<glyph unicode="&#xba;" horiz-adv-x="815" d="M90 1110q0 89 25 158q23 64 66 108q42 43 101 63q57 19 126 19q68 0 126 -18q55 -17 100 -60q42 -40 66 -107q25 -69 25 -163t-25 -163q-24 -67 -66 -107q-45 -43 -100 -60q-58 -18 -126 -18t-126 18q-57 18 -101 60q-42 40 -66 107q-25 69 -25 163zM242 1110 q0 -123 44 -176t122 -53q42 0 69 11q32 13 52 37q21 25 33 69q11 40 11 112t-11 112q-12 44 -33 69q-20 24 -52 37q-28 11 -69 11q-78 0 -122 -48q-44 -49 -44 -181z" />
<glyph unicode="&#xbb;" horiz-adv-x="978" d="M80 909l106 88l340 -448l-327 -467l-107 86l197 295l100 84l-100 74zM449 911l108 90l342 -452l-328 -471l-110 88l201 297l98 84l-98 74z" />
<glyph unicode="&#xbc;" horiz-adv-x="1714" d="M109 1239l315 209h86v-875h-143v646l14 73l-57 -57l-160 -96zM330 49l997 1411l107 -71l-998 -1414zM907 197v75l463 619h92v-574h170v-120h-170v-197h-137v197h-418zM1061 307l102 10h162v263l12 100h-4l-45 -94l-160 -215z" />
<glyph unicode="&#xbd;" horiz-adv-x="1740" d="M109 1239l315 209h86v-875h-143v646l14 73l-57 -57l-160 -96zM330 49l997 1411l107 -71l-998 -1414zM1063 0v68q66 56 118 104q75 70 136 141t111 156q47 80 47 147q0 64 -41 96q-40 31 -101 31q-56 0 -107 -19q-49 -18 -91 -44l-45 117q49 35 123 57q67 20 145 20 q128 0 194 -63t66 -176q0 -60 -22 -123q-21 -60 -57 -117q-35 -55 -85 -113q-58 -66 -104 -114l-95 -66v-4l117 31h287v-129h-596z" />
<glyph unicode="&#xbe;" horiz-adv-x="1794" d="M156 598l30 123q32 -15 80 -28q41 -11 99 -11q98 0 150 39t52 115q0 65 -47 106t-151 41h-113v47l199 238l69 55l-100 -12h-266v123h524v-68l-211 -252l-51 -37v-4l47 6q113 -1 178 -67q66 -66 66 -176q0 -125 -91 -201t-243 -76q-75 0 -127 12q-55 13 -94 27zM410 49 l997 1411l106 -71l-997 -1414zM987 197v75l463 619h92v-574h170v-120h-170v-197h-137v197h-418zM1141 307l102 10h162v263l12 100h-4l-45 -94l-160 -215z" />
<glyph unicode="&#xbf;" horiz-adv-x="892" d="M76 -100q0 91 27 160q25 64 70 125q40 55 90 106q50 52 90 103q43 56 70 118q28 65 28 150h135q2 -14 2 -23v-23q0 -84 -26 -151q-26 -66 -63 -120q-36 -52 -82 -101q-42 -45 -82 -96t-64 -102q-25 -53 -25 -124q0 -93 54 -153t181 -60q72 0 150 26q74 25 131 60l55 -127 q-83 -49 -164 -75q-85 -27 -213 -27q-90 0 -158 25q-67 25 -115 71q-46 44 -69 106q-22 59 -22 132zM391 930q0 55 32 87t85 32q54 0 88 -32q33 -31 33 -87q0 -53 -33 -86t-88 -33q-54 0 -85 33q-32 34 -32 86z" />
<glyph unicode="&#xc0;" horiz-adv-x="1198" d="M16 0l543 1456h78l545 -1456h-178l-148 397h-528l-144 -397h-168zM276 1739v43h234l242 -242h-152zM383 545h422l-160 436l-51 217h-2l-51 -221z" />
<glyph unicode="&#xc1;" horiz-adv-x="1198" d="M16 0l543 1456h78l545 -1456h-178l-148 397h-528l-144 -397h-168zM383 545h422l-160 436l-51 217h-2l-51 -221zM436 1540l242 242h233v-43l-333 -199h-142z" />
<glyph unicode="&#xc2;" horiz-adv-x="1198" d="M16 0l543 1456h78l545 -1456h-178l-148 397h-528l-144 -397h-168zM270 1530v45l273 207h123l260 -209v-43h-166l-123 100l-35 72l-39 -70l-131 -102h-162zM383 545h422l-160 436l-51 217h-2l-51 -221z" />
<glyph unicode="&#xc3;" horiz-adv-x="1198" d="M16 0l543 1456h78l545 -1456h-178l-148 397h-528l-144 -397h-168zM276 1608q61 63 118 89q52 23 104 23q39 0 75 -10q43 -12 71 -23q37 -14 67 -24q31 -10 63 -10q54 0 103 43l51 -88q-56 -52 -105 -71q-48 -19 -92 -19q-41 0 -74 10q-42 13 -68 23q-37 14 -67 24 q-31 10 -65 10q-35 0 -65 -13q-32 -14 -66 -48zM383 545h422l-160 436l-51 217h-2l-51 -221z" />
<glyph unicode="&#xc4;" horiz-adv-x="1198" d="M16 0l543 1456h78l545 -1456h-178l-148 397h-528l-144 -397h-168zM295 1626q0 42 31 70q29 26 80 26q47 0 76 -26q30 -27 30 -70q0 -40 -30 -67t-76 -27q-50 0 -80 27q-31 28 -31 67zM383 545h422l-160 436l-51 217h-2l-51 -221zM688 1626q0 43 30 70q29 26 77 26 q50 0 79 -26q31 -28 31 -70q0 -39 -31 -67q-30 -27 -79 -27q-47 0 -77 27t-30 67z" />
<glyph unicode="&#xc5;" horiz-adv-x="1198" d="M16 0l525 1407q-77 12 -117 56q-39 43 -39 110q0 75 51 125q50 49 164 49q102 0 160 -44q57 -43 57 -130q0 -66 -41 -110t-121 -56l527 -1407h-178l-148 397h-528l-144 -397h-168zM383 545h422l-160 436l-51 217h-2l-51 -221zM510 1573q0 -35 21 -59q20 -23 69 -23 q46 0 69 22t23 60q0 39 -22 62q-23 24 -70 24q-46 0 -68 -24q-22 -23 -22 -62z" />
<glyph unicode="&#xc6;" horiz-adv-x="1732" d="M-45 0l850 1434h784v-152h-610v-469h559v-151h-559v-510h620v-152h-790v406h-438l-230 -406h-186zM459 549h350v680h-8l-70 -211z" />
<glyph unicode="&#xc7;" horiz-adv-x="1169" d="M115 717q0 200 54 341q53 139 143 229t200 130q112 41 225 41q126 0 201 -13q77 -13 133 -36l-41 -149q-100 47 -280 47q-81 0 -166 -31q-81 -29 -147 -100q-63 -67 -103 -183q-39 -113 -39 -276q0 -148 37 -258q38 -114 101 -185q63 -72 152 -110q86 -37 189 -37 q92 0 161 18q66 17 116 48l41 -134q-53 -41 -131 -59q-81 -19 -170 -23l-35 -65q88 -17 124 -53q38 -38 38 -101q0 -80 -66 -132q-65 -52 -184 -52q-15 0 -45 2q-25 2 -48 6l19 80q16 -2 22 -2h21q44 0 71 8q23 7 38 20t17 25q3 15 3 27q0 58 -176 76l86 164q-118 7 -221 56 q-103 48 -179 138q-73 86 -118 225q-43 133 -43 318z" />
<glyph unicode="&#xc8;" horiz-adv-x="1097" d="M174 0v1434h780v-152h-610v-469h559v-151h-559v-510h621v-152h-791zM193 1739v43h233l242 -242h-152z" />
<glyph unicode="&#xc9;" horiz-adv-x="1097" d="M174 0v1434h780v-152h-610v-469h559v-151h-559v-510h621v-152h-791zM434 1540l242 242h233v-43l-334 -199h-141z" />
<glyph unicode="&#xca;" horiz-adv-x="1097" d="M174 0v1434h780v-152h-610v-469h559v-151h-559v-510h621v-152h-791zM223 1530v45l273 207h122l261 -209v-43h-166l-123 100l-35 72l-39 -70l-131 -102h-162z" />
<glyph unicode="&#xcb;" horiz-adv-x="1097" d="M174 0v1434h780v-152h-610v-469h559v-151h-559v-510h621v-152h-791zM246 1626q0 43 30 70q29 26 80 26q48 0 77 -26q30 -27 30 -70q0 -40 -30 -67t-77 -27q-50 0 -80 27t-30 67zM639 1626q0 43 30 70q29 26 76 26q51 0 80 -26q31 -28 31 -70q0 -39 -31 -67 q-30 -27 -80 -27q-46 0 -76 27t-30 67z" />
<glyph unicode="&#xcc;" horiz-adv-x="595" d="M-74 1739v43h234l241 -242h-151zM213 0v1434h170v-1434h-170z" />
<glyph unicode="&#xcd;" horiz-adv-x="595" d="M127 1540l242 242h233v-43l-334 -199h-141zM213 0v1434h170v-1434h-170z" />
<glyph unicode="&#xce;" horiz-adv-x="595" d="M-29 1530v45l273 207h123l260 -209v-43h-166l-123 100l-35 72l-39 -70l-131 -102h-162zM213 0v1434h170v-1434h-170z" />
<glyph unicode="&#xcf;" horiz-adv-x="595" d="M-2 1626q0 42 31 70q29 26 80 26q47 0 76 -26q30 -27 30 -70q0 -40 -30 -67t-76 -27q-50 0 -80 27q-31 28 -31 67zM213 0v1434h170v-1434h-170zM391 1626q0 43 30 70q29 26 77 26q51 0 80 -26q30 -27 30 -70q0 -40 -30 -67t-80 -27q-47 0 -77 27t-30 67z" />
<glyph unicode="&#xd0;" horiz-adv-x="1347" d="M-2 680v123h184v631q39 6 87 9q33 2 101 4l102 2q33 1 93 1q171 0 298 -53q122 -51 208 -149q81 -93 122 -228q40 -132 40 -293q0 -145 -38 -280q-37 -133 -120 -237q-82 -103 -213 -166q-128 -62 -317 -62q-50 0 -85 1q-72 2 -108 4q-78 4 -102 5q-47 2 -68 6v682h-184z M352 141q10 -1 39 -3l60 -2l59 -2q19 -1 39 -1q144 0 241 49q96 49 155 132t83 191q25 112 25 222q0 98 -23 202q-22 100 -78 183q-55 81 -148 134q-92 52 -235 52h-58q-22 0 -62 -2q-11 -1 -30.5 -2.5t-26.5 -1.5q-8 0 -15 -1t-14.5 -2t-10.5 -1v-485h301v-123h-301v-539z " />
<glyph unicode="&#xd1;" horiz-adv-x="1378" d="M174 0v1456h90l686 -956l107 -197h10l-23 197v934h160v-1457h-90l-682 961l-110 207h-9l21 -207v-938h-160zM367 1608q61 64 117 89q52 23 104 23q40 0 76 -10q39 -11 70 -23q37 -14 67 -24q31 -10 63 -10q54 0 103 43l51 -88q-56 -52 -105 -71q-48 -19 -92 -19 q-40 0 -73 10q-46 14 -69 23q-37 14 -67 24q-31 10 -65 10q-35 0 -65 -13q-32 -14 -66 -48z" />
<glyph unicode="&#xd2;" horiz-adv-x="1400" d="M115 717q0 359 151 550t432 191q151 0 263 -53q110 -52 183 -151t107 -233q35 -138 35 -304q0 -359 -152 -550q-153 -192 -436 -192q-146 0 -259 54q-110 53 -182 150q-73 99 -107 234q-35 138 -35 304zM295 717q0 -123 23 -225q24 -109 73 -188q49 -81 126 -129t181 -48 q191 0 299 144q109 145 109 446q0 116 -24 224t-73 188t-127 129t-184 49q-187 0 -296 -145q-107 -143 -107 -445zM365 1739v43h233l242 -242h-152z" />
<glyph unicode="&#xd3;" horiz-adv-x="1400" d="M115 717q0 359 151 550t432 191q151 0 263 -53q110 -52 183 -151t107 -233q35 -138 35 -304q0 -359 -152 -550q-153 -192 -436 -192q-146 0 -259 54q-110 53 -182 150q-73 99 -107 234q-35 138 -35 304zM295 717q0 -123 23 -225q24 -109 73 -188q49 -81 126 -129t181 -48 q191 0 299 144q109 145 109 446q0 116 -24 224t-73 188t-127 129t-184 49q-187 0 -296 -145q-107 -143 -107 -445zM608 1540l242 242h233v-43l-333 -199h-142z" />
<glyph unicode="&#xd4;" horiz-adv-x="1400" d="M115 717q0 359 151 550t432 191q151 0 263 -53q110 -52 183 -151t107 -233q35 -138 35 -304q0 -359 -152 -550q-153 -192 -436 -192q-146 0 -259 54q-110 53 -182 150q-73 99 -107 234q-35 138 -35 304zM295 717q0 -123 23 -225q24 -109 73 -188q49 -81 126 -129t181 -48 q191 0 299 144q109 145 109 446q0 116 -24 224t-73 188t-127 129t-184 49q-187 0 -296 -145q-107 -143 -107 -445zM367 1530v45l272 207h123l260 -209v-43h-166l-123 100l-35 72l-39 -70l-131 -102h-161z" />
<glyph unicode="&#xd5;" horiz-adv-x="1400" d="M115 717q0 359 151 550t432 191q151 0 263 -53q110 -52 183 -151t107 -233q35 -138 35 -304q0 -359 -152 -550q-153 -192 -436 -192q-146 0 -259 54q-110 53 -182 150q-73 99 -107 234q-35 138 -35 304zM295 717q0 -123 23 -225q24 -109 73 -188q49 -81 126 -129t181 -48 q191 0 299 144q109 145 109 446q0 116 -24 224t-73 188t-127 129t-184 49q-187 0 -296 -145q-107 -143 -107 -445zM373 1608q61 63 118 89q52 23 103 23q40 0 76 -10q39 -11 70 -23q37 -14 67 -24q31 -10 63 -10q54 0 103 43l51 -88q-57 -53 -104 -71q-48 -19 -93 -19 q-40 0 -73 10q-46 14 -69 23q-41 16 -66 24q-31 10 -66 10t-65 -13q-32 -14 -66 -48z" />
<glyph unicode="&#xd6;" horiz-adv-x="1400" d="M115 717q0 359 151 550t432 191q151 0 263 -53q110 -52 183 -151t107 -233q35 -138 35 -304q0 -359 -152 -550q-153 -192 -436 -192q-146 0 -259 54q-110 53 -182 150q-73 99 -107 234q-35 138 -35 304zM295 717q0 -123 23 -225q24 -109 73 -188q49 -81 126 -129t181 -48 q191 0 299 144q109 145 109 446q0 116 -24 224t-73 188t-127 129t-184 49q-187 0 -296 -145q-107 -143 -107 -445zM389 1626q0 42 31 70q29 26 80 26q48 0 77 -26t29 -70q0 -41 -29 -67q-30 -27 -77 -27q-50 0 -80 27q-31 28 -31 67zM782 1626q0 43 30 70q29 26 77 26 q51 0 80 -26q30 -27 30 -70q0 -40 -30 -67t-80 -27q-47 0 -77 27t-30 67z" />
<glyph unicode="&#xd7;" horiz-adv-x="1034" d="M152 430l262 264l-258 256l104 109l258 -260l260 260l105 -109l-258 -258l258 -260l-105 -106l-260 262l-260 -262z" />
<glyph unicode="&#xd8;" horiz-adv-x="1400" d="M115 717q0 359 151 550t432 191q114 0 207 -31q92 -31 160 -90l86 123l106 -71l-104 -148q67 -98 100 -230t33 -294q0 -359 -152 -550q-153 -192 -436 -192q-217 0 -358 115l-80 -115l-106 74l96 137q-71 101 -103 232q-32 129 -32 299zM295 717q0 -111 17 -197 q19 -94 55 -170l594 842q-48 54 -112 84q-67 31 -151 31q-187 0 -296 -145q-107 -143 -107 -445zM442 233q46 -50 111 -78t145 -28q191 0 299 144q109 145 109 446q0 104 -17 190q-18 90 -53 168z" />
<glyph unicode="&#xd9;" horiz-adv-x="1335" d="M174 444v990h170v-910q0 -104 22 -183q21 -75 64 -121q41 -44 108 -66q64 -21 150 -21q166 0 238 91q71 90 71 300v910h164v-957q0 -130 -34 -223q-36 -97 -96 -155q-65 -61 -150 -89q-87 -28 -195 -28q-254 0 -383 114t-129 348zM358 1739v43h234l242 -242h-152z" />
<glyph unicode="&#xda;" horiz-adv-x="1335" d="M174 444v990h170v-910q0 -104 22 -183q21 -75 64 -121q41 -44 108 -66q64 -21 150 -21q166 0 238 91q71 90 71 300v910h164v-957q0 -130 -34 -223q-36 -97 -96 -155q-65 -61 -150 -89q-87 -28 -195 -28q-254 0 -383 114t-129 348zM557 1540l242 242h233v-43l-334 -199 h-141z" />
<glyph unicode="&#xdb;" horiz-adv-x="1335" d="M174 444v990h170v-910q0 -104 22 -183q21 -75 64 -121q41 -44 108 -66q64 -21 150 -21q166 0 238 91q71 90 71 300v910h164v-957q0 -130 -34 -223q-36 -97 -96 -155q-65 -61 -150 -89q-87 -28 -195 -28q-254 0 -383 114t-129 348zM344 1530v45l272 207h123l260 -209v-43 h-165l-123 100l-35 72l-39 -70l-131 -102h-162z" />
<glyph unicode="&#xdc;" horiz-adv-x="1335" d="M174 444v990h170v-910q0 -104 22 -183q21 -75 64 -121q41 -44 108 -66q64 -21 150 -21q166 0 238 91q71 90 71 300v910h164v-957q0 -130 -34 -223q-36 -97 -96 -155q-65 -61 -150 -89q-87 -28 -195 -28q-254 0 -383 114t-129 348zM365 1626q0 43 30 70q29 26 80 26 q48 0 77 -26q30 -27 30 -70q0 -40 -30 -67t-77 -27q-50 0 -80 27t-30 67zM758 1626q0 44 29 70t77 26q51 0 80 -26q31 -28 31 -70q0 -39 -31 -67q-30 -27 -80 -27q-47 0 -77 27q-29 26 -29 67z" />
<glyph unicode="&#xdd;" horiz-adv-x="1142" d="M16 1434h199l336 -627l35 -125h2l37 129l321 623h182l-469 -863v-571h-170v569zM485 1540l242 242h234v-43l-334 -199h-142z" />
<glyph unicode="&#xde;" horiz-adv-x="1144" d="M174 0v1638h170v-358q86 6 176 6q94 0 192 -18q96 -18 177 -68t130 -135q50 -86 50 -219q0 -130 -47 -221q-46 -89 -125 -147q-78 -57 -178 -81q-101 -24 -207 -24h-34q-32 0 -49 1q-34 2 -50 3q-12 1 -35 4v-381h-170zM344 532q8 -3 33 -5l47 -2q16 -1 47 -1h33 q66 0 138 14q68 13 124 48q54 33 89 98q34 62 34 162q0 82 -32 140q-30 55 -84 90q-49 32 -118 48q-66 15 -131 15q-36 0 -102 -2q-41 -1 -78 -11v-594z" />
<glyph unicode="&#xdf;" horiz-adv-x="1212" d="M45 881v143h160v47q0 199 97 287t269 88q82 0 154 -22t120 -61q52 -43 78 -94q27 -54 27 -122q0 -79 -39 -125q-40 -48 -85 -84q-41 -33 -85 -72q-39 -34 -39 -86q0 -43 31 -71q26 -24 78 -47l100 -42q52 -21 101 -57q49 -37 78 -91q30 -57 30 -146q0 -65 -24 -128 q-23 -61 -71 -112q-47 -50 -116 -80q-71 -31 -157 -31q-47 0 -83 3q-33 3 -66 11q-34 9 -56 17q-24 9 -53 27l47 137q25 -13 43 -23q15 -9 40 -16q21 -6 48 -9t65 -3q43 0 83 15q41 15 71 42t48 63q17 34 17 80q0 62 -30 98t-77 60q-51 26 -100 44q-57 21 -101 49 q-48 31 -77 76q-30 46 -30 124q0 79 38 128q38 48 86 86q37 29 85 73q36 33 36 88q0 35 -19 63q-20 29 -50 50t-68 33q-37 12 -71 12q-58 0 -98 -15t-65 -47q-25 -33 -36 -87q-10 -51 -10 -134v-1020h-164v881h-160z" />
<glyph unicode="&#xe0;" horiz-adv-x="1015" d="M80 274q0 92 37 151q38 60 103 96q66 36 160 51q99 16 206 16h56q31 0 56 -4q7 72 7 110q0 112 -46 158q-45 45 -163 45q-30 0 -75 -5q-35 -4 -82 -14q-40 -9 -80 -23q-37 -13 -66 -30l-52 123q80 48 182 70q101 22 216 22q108 0 171 -28t98 -75q33 -44 45 -101 q11 -51 11 -111q0 -123 -6 -240t-6 -221q0 -76 6 -143q6 -66 23 -125h-121l-43 143h-10q-15 -24 -47 -56q-29 -29 -66 -49q-39 -21 -90 -36q-48 -14 -117 -14q-68 0 -122 20q-57 21 -97 58t-65 92q-23 50 -23 120zM250 291q0 -71 51 -118q50 -46 131 -46q58 0 103 15 q43 14 77 39q36 26 55 52q20 27 31 56v170q-38 2 -58 3t-58 1q-68 0 -124 -7q-61 -8 -107 -27q-47 -20 -73 -53q-28 -36 -28 -85zM297 1432v43h195l133 -306h-93z" />
<glyph unicode="&#xe1;" horiz-adv-x="1015" d="M80 274q0 92 37 151q38 60 103 96q66 36 160 51q99 16 206 16h56q31 0 56 -4q7 72 7 110q0 112 -46 158q-45 45 -163 45q-30 0 -75 -5q-35 -4 -82 -14q-40 -9 -80 -23q-37 -13 -66 -30l-52 123q80 48 182 70q101 22 216 22q108 0 171 -28t98 -75q33 -44 45 -101 q11 -51 11 -111q0 -123 -6 -240t-6 -221q0 -76 6 -143q6 -66 23 -125h-121l-43 143h-10q-15 -24 -47 -56q-29 -29 -66 -49q-39 -21 -90 -36q-48 -14 -117 -14q-68 0 -122 20q-57 21 -97 58t-65 92q-23 50 -23 120zM250 291q0 -71 51 -118q50 -46 131 -46q58 0 103 15 q43 14 77 39q36 26 55 52q20 27 31 56v170q-38 2 -58 3t-58 1q-68 0 -124 -7q-61 -8 -107 -27q-47 -20 -73 -53q-28 -36 -28 -85zM367 1169l120 306h183v-43l-207 -263h-96z" />
<glyph unicode="&#xe2;" horiz-adv-x="1015" d="M80 274q0 92 37 151q38 60 103 96q66 36 160 51q99 16 206 16h56q31 0 56 -4q7 72 7 110q0 112 -46 158q-45 45 -163 45q-30 0 -75 -5q-35 -4 -82 -14q-40 -9 -80 -23q-37 -13 -66 -30l-52 123q80 48 182 70q101 22 216 22q108 0 171 -28t98 -75q33 -44 45 -101 q11 -51 11 -111q0 -123 -6 -240t-6 -221q0 -76 6 -143q6 -66 23 -125h-121l-43 143h-10q-15 -24 -47 -56q-29 -29 -66 -49q-39 -21 -90 -36q-48 -14 -117 -14q-68 0 -122 20q-57 21 -97 58t-65 92q-23 50 -23 120zM238 1126l251 373h66l227 -373h-147l-80 136l-43 118 l-45 -118l-92 -136h-137zM250 291q0 -71 51 -118q50 -46 131 -46q58 0 103 15q43 14 77 39q36 26 55 52q20 27 31 56v170q-38 2 -58 3t-58 1q-68 0 -124 -7q-61 -8 -107 -27q-47 -20 -73 -53q-28 -36 -28 -85z" />
<glyph unicode="&#xe3;" horiz-adv-x="1015" d="M80 274q0 92 37 151q38 60 103 96q66 36 160 51q99 16 206 16h56q31 0 56 -4q7 72 7 110q0 112 -46 158q-45 45 -163 45q-30 0 -75 -5q-35 -4 -82 -14q-40 -9 -80 -23q-37 -13 -66 -30l-52 123q80 48 182 70q101 22 216 22q108 0 171 -28t98 -75q33 -44 45 -101 q11 -51 11 -111q0 -123 -6 -240t-6 -221q0 -76 6 -143q6 -66 23 -125h-121l-43 143h-10q-15 -24 -47 -56q-29 -29 -66 -49q-39 -21 -90 -36q-48 -14 -117 -14q-68 0 -122 20q-57 21 -97 58t-65 92q-23 50 -23 120zM223 1343q62 70 109 94q49 25 90 25q35 0 64 -13 q31 -14 58 -29q24 -13 53 -27q28 -13 54 -13q44 0 94 50l50 -89q-50 -57 -98 -80q-46 -22 -81 -22q-32 0 -61 12q-23 10 -56 28q-18 10 -56 29q-26 13 -56 13q-29 0 -54 -14q-29 -16 -63 -50zM250 291q0 -71 51 -118q50 -46 131 -46q58 0 103 15q43 14 77 39q36 26 55 52 q20 27 31 56v170q-38 2 -58 3t-58 1q-68 0 -124 -7q-61 -8 -107 -27q-47 -20 -73 -53q-28 -36 -28 -85z" />
<glyph unicode="&#xe4;" horiz-adv-x="1015" d="M80 274q0 92 37 151q38 60 103 96q66 36 160 51q99 16 206 16h56q31 0 56 -4q7 72 7 110q0 112 -46 158q-45 45 -163 45q-30 0 -75 -5q-35 -4 -82 -14q-40 -9 -80 -23q-37 -13 -66 -30l-52 123q80 48 182 70q101 22 216 22q108 0 171 -28t98 -75q33 -44 45 -101 q11 -51 11 -111q0 -123 -6 -240t-6 -221q0 -76 6 -143q6 -66 23 -125h-121l-43 143h-10q-15 -24 -47 -56q-29 -29 -66 -49q-39 -21 -90 -36q-48 -14 -117 -14q-68 0 -122 20q-57 21 -97 58t-65 92q-23 50 -23 120zM215 1337q0 46 28 76q27 29 72 29q46 0 73 -29 q28 -30 28 -76q0 -41 -28 -71q-27 -29 -73 -29q-45 0 -72 29q-28 30 -28 71zM250 291q0 -71 51 -118q50 -46 131 -46q58 0 103 15q43 14 77 39q36 26 55 52q20 27 31 56v170q-38 2 -58 3t-58 1q-68 0 -124 -7q-61 -8 -107 -27q-47 -20 -73 -53q-28 -36 -28 -85zM608 1337 q0 46 28 76q27 29 73 29q47 0 74 -29q28 -30 28 -76q0 -41 -28 -71q-27 -29 -74 -29q-46 0 -73 29q-28 30 -28 71z" />
<glyph unicode="&#xe5;" horiz-adv-x="1015" d="M80 274q0 92 37 151q38 60 103 96q66 36 160 51q99 16 206 16h56q31 0 56 -4q7 72 7 110q0 112 -46 158q-45 45 -163 45q-30 0 -75 -5q-35 -4 -82 -14q-40 -9 -80 -23q-37 -13 -66 -30l-52 123q80 48 182 70q101 22 216 22q108 0 171 -28t98 -75q33 -44 45 -101 q11 -51 11 -111q0 -123 -6 -240t-6 -221q0 -76 6 -143q6 -66 23 -125h-121l-43 143h-10q-15 -24 -47 -56q-29 -29 -66 -49q-39 -21 -90 -36q-48 -14 -117 -14q-68 0 -122 20q-57 21 -97 58t-65 92q-23 50 -23 120zM250 291q0 -71 51 -118q50 -46 131 -46q58 0 103 15 q43 14 77 39q36 26 55 52q20 27 31 56v170q-38 2 -58 3t-58 1q-68 0 -124 -7q-61 -8 -107 -27q-47 -20 -73 -53q-28 -36 -28 -85zM311 1317q0 86 55 136t144 50q86 0 143 -45q58 -46 58 -141q0 -79 -58 -132q-56 -52 -143 -52q-85 0 -142 48t-57 136zM422 1317q0 -41 27 -64 q26 -22 61 -22q40 0 64 20q26 21 26 66q0 44 -28 66t-62 22t-61 -21t-27 -67z" />
<glyph unicode="&#xe6;" horiz-adv-x="1630" d="M80 274q0 92 37 151q38 60 103 96q66 36 160 51q99 16 206 16h56q31 0 56 -4q1 11 2.5 30.5t1.5 27.5q0 2 1.5 22t1.5 30q0 111 -46 159q-44 46 -163 44q-30 0 -75 -5q-35 -4 -82 -14q-40 -9 -80 -23q-37 -13 -66 -30l-52 123q80 48 182 70q101 22 216 22q215 0 278 -133 q52 73 144 108q89 34 180 34q65 0 139 -16q69 -15 125 -59q55 -43 90 -124t35 -209q0 -33 -3 -69q-4 -52 -7 -76h-662q0 -179 75 -278t255 -99q72 0 140 25q65 24 106 57l61 -119q-61 -49 -155 -78q-95 -29 -197 -29q-123 0 -227 52q-100 50 -150 145h-14q-23 -32 -62 -71 q-31 -31 -79 -59q-44 -26 -100 -42q-55 -16 -124 -16q-68 0 -122 20q-57 21 -97 58t-65 92q-23 50 -23 120zM250 291q0 -71 51 -118q50 -46 131 -46q58 0 103 15q43 14 77 39q36 26 55 52q20 27 31 56v170q-38 2 -58 3t-58 1q-68 0 -124 -7q-61 -8 -107 -27q-47 -20 -73 -53 q-28 -36 -28 -85zM862 625h508v24q0 140 -62 198t-165 58q-121 0 -195 -63t-86 -217z" />
<glyph unicode="&#xe7;" horiz-adv-x="923" d="M100 512q0 259 115 398t330 139q93 0 167 -16q66 -14 124 -44l-48 -141q-46 27 -104 42q-57 15 -123 15q-291 0 -291 -393q0 -73 16 -148q15 -71 51 -125q37 -55 94 -86q59 -32 144 -32q75 0 133 21q53 19 95 51l53 -125q-100 -71 -248 -88l-37 -68q88 -17 124 -53 q38 -38 38 -101q0 -80 -65 -132t-185 -52q-15 0 -45 2q-23 2 -47 6l19 80q16 -2 22 -2h21q43 0 70 8q25 7 39 20q15 13 17 25q3 15 3 27q0 58 -176 76l86 161q-105 6 -181 48q-75 41 -121 110q-47 69 -68 165q-22 99 -22 212z" />
<glyph unicode="&#xe8;" horiz-adv-x="1040" d="M100 512q0 262 117 399q118 138 334 138q65 0 139 -16q71 -15 125 -58q56 -44 90 -122q35 -81 35 -208q0 -67 -12 -149h-658q0 -87 19 -160q18 -70 57 -118q40 -49 101 -74q62 -25 153 -25q70 0 139 24q70 24 105 58l61 -119q-62 -50 -154 -78q-95 -29 -198 -29 q-116 0 -203 38q-84 37 -141 109q-55 70 -82 169t-27 221zM272 625h508q0 156 -59 218t-168 62q-122 0 -194 -63t-87 -217zM348 1432v43h195l133 -306h-92z" />
<glyph unicode="&#xe9;" horiz-adv-x="1040" d="M100 512q0 262 117 399q118 138 334 138q65 0 139 -16q71 -15 125 -58q56 -44 90 -122q35 -81 35 -208q0 -67 -12 -149h-658q0 -87 19 -160q18 -70 57 -118q40 -49 101 -74q62 -25 153 -25q70 0 139 24q70 24 105 58l61 -119q-62 -50 -154 -78q-95 -29 -198 -29 q-116 0 -203 38q-84 37 -141 109q-55 70 -82 169t-27 221zM272 625h508q0 156 -59 218t-168 62q-122 0 -194 -63t-87 -217zM475 1169l121 306h182v-43l-207 -263h-96z" />
<glyph unicode="&#xea;" horiz-adv-x="1040" d="M100 512q0 262 117 399q118 138 334 138q65 0 139 -16q71 -15 125 -58q56 -44 90 -122q35 -81 35 -208q0 -67 -12 -149h-658q0 -87 19 -160q18 -70 57 -118q40 -49 101 -74q62 -25 153 -25q70 0 139 24q70 24 105 58l61 -119q-62 -50 -154 -78q-95 -29 -198 -29 q-116 0 -203 38q-84 37 -141 109q-55 70 -82 169t-27 221zM250 1126l252 373h65l228 -373h-148l-80 136l-43 118l-45 -118l-92 -136h-137zM272 625h508q0 156 -59 218t-168 62q-122 0 -194 -63t-87 -217z" />
<glyph unicode="&#xeb;" horiz-adv-x="1040" d="M100 512q0 262 117 399q118 138 334 138q65 0 139 -16q71 -15 125 -58q56 -44 90 -122q35 -81 35 -208q0 -67 -12 -149h-658q0 -87 19 -160q18 -70 57 -118q40 -49 101 -74q62 -25 153 -25q70 0 139 24q70 24 105 58l61 -119q-62 -50 -154 -78q-95 -29 -198 -29 q-116 0 -203 38q-84 37 -141 109q-55 70 -82 169t-27 221zM244 1337q0 47 27 76t73 29t73 -29t27 -76q0 -43 -27 -71q-27 -29 -73 -29t-73 29q-27 28 -27 71zM272 625h508q0 156 -59 218t-168 62q-122 0 -194 -63t-87 -217zM637 1337q0 46 28 76q27 29 72 29q48 0 75 -29 q28 -30 28 -76q0 -41 -28 -71q-27 -29 -75 -29q-45 0 -72 29q-28 30 -28 71z" />
<glyph unicode="&#xec;" horiz-adv-x="548" d="M27 1432v43h194l133 -306h-92zM193 0v1024h163v-1024h-163z" />
<glyph unicode="&#xed;" horiz-adv-x="548" d="M193 0v1024h163v-1024h-163zM195 1169l120 306h183v-43l-207 -263h-96z" />
<glyph unicode="&#xee;" horiz-adv-x="548" d="M-2 1126l252 373h65l228 -373h-148l-80 136l-43 118l-45 -118l-92 -136h-137zM193 0v1024h163v-1024h-163z" />
<glyph unicode="&#xef;" horiz-adv-x="548" d="M-23 1337q0 46 28 76q27 29 73 29t73 -29t27 -76q0 -43 -27 -71q-27 -29 -73 -29t-73 29q-28 30 -28 71zM193 0v1024h163v-1024h-163zM371 1337q0 47 27 76t73 29q48 0 75 -29t27 -76q0 -43 -27 -71q-27 -29 -75 -29q-46 0 -73 29q-27 28 -27 71z" />
<glyph unicode="&#xf0;" horiz-adv-x="1148" d="M115 514q0 110 29 203q31 99 88 169q58 71 144 115q85 43 197 43q94 0 163 -28q72 -29 100 -66q-22 76 -69 144q-49 71 -105 120l-156 -84l-55 91l116 63q-83 49 -155 66l71 110q47 -19 95 -39q58 -24 118 -67l140 76l53 -93l-103 -55q50 -47 95 -110q47 -65 80 -145 q34 -81 55 -187q20 -100 20 -236q0 -168 -37 -285q-38 -121 -99 -195q-64 -78 -145 -113q-83 -36 -177 -36q-126 0 -213 43q-89 44 -144 117t-81 171q-25 96 -25 208zM283 512q0 -102 22 -174q23 -74 63 -123q41 -50 96 -73t122 -23q62 0 113 26q53 27 92 84q38 55 61 148 q22 88 22 217q0 29 -1 46l-2 51q-2 32 -4 49q-3 26 -7 40q-17 29 -46 51q-33 25 -66 38q-40 16 -78 23t-80 7q-80 0 -138 -30q-61 -31 -97 -82q-37 -52 -55 -122q-17 -67 -17 -153z" />
<glyph unicode="&#xf1;" horiz-adv-x="1120" d="M158 0v1024h114l31 -125h8q49 66 132 108t198 42q82 0 147 -20q66 -20 106 -68q42 -49 63 -133q22 -86 22 -210v-618h-164v584q0 160 -46 240q-47 81 -169 81q-109 0 -179 -58q-71 -59 -99 -147v-700h-164zM274 1343q62 70 109 94q49 25 90 25q36 0 65 -13q25 -11 57 -29 q24 -13 53 -27q28 -13 54 -13q45 0 95 50l49 -89q-50 -57 -97 -80q-46 -22 -81 -22q-34 0 -62 12q-23 10 -56 28q-27 15 -55 29q-26 13 -57 13q-29 0 -54 -14q-27 -15 -62 -50z" />
<glyph unicode="&#xf2;" horiz-adv-x="1097" d="M100 512q0 259 116 398t333 139q113 0 200 -38q83 -36 140 -109q55 -69 82 -170q26 -95 26 -220q0 -261 -115 -398q-116 -139 -333 -139q-113 0 -200 38q-83 36 -140 109q-55 69 -82 170q-27 99 -27 220zM270 512q0 -73 16 -150q15 -71 48 -124t86 -86q52 -33 129 -33 q140 -1 209 97t69 296q0 80 -15 152q-15 71 -48 124q-34 54 -86 85q-53 32 -129 32q-140 1 -209.5 -97t-69.5 -296zM322 1432v43h194l133 -306h-92z" />
<glyph unicode="&#xf3;" horiz-adv-x="1097" d="M100 512q0 259 116 398t333 139q113 0 200 -38q83 -36 140 -109q55 -69 82 -170q26 -95 26 -220q0 -261 -115 -398q-116 -139 -333 -139q-113 0 -200 38q-83 36 -140 109q-55 69 -82 170q-27 99 -27 220zM270 512q0 -73 16 -150q15 -71 48 -124t86 -86q52 -33 129 -33 q140 -1 209 97t69 296q0 80 -15 152q-15 71 -48 124q-34 54 -86 85q-53 32 -129 32q-140 1 -209.5 -97t-69.5 -296zM465 1169l121 306h182v-43l-207 -263h-96z" />
<glyph unicode="&#xf4;" horiz-adv-x="1097" d="M100 512q0 259 116 398t333 139q113 0 200 -38q83 -36 140 -109q55 -69 82 -170q26 -95 26 -220q0 -261 -115 -398q-116 -139 -333 -139q-113 0 -200 38q-83 36 -140 109q-55 69 -82 170q-27 99 -27 220zM270 512q0 -73 16 -150q15 -71 48 -124t86 -86q52 -33 129 -33 q140 -1 209 97t69 296q0 80 -15 152q-15 71 -48 124q-34 54 -86 85q-53 32 -129 32q-140 1 -209.5 -97t-69.5 -296zM276 1126l252 373h66l227 -373h-147l-80 136l-43 118l-45 -118l-92 -136h-138z" />
<glyph unicode="&#xf5;" horiz-adv-x="1097" d="M100 512q0 259 116 398t333 139q113 0 200 -38q83 -36 140 -109q55 -69 82 -170q26 -95 26 -220q0 -261 -115 -398q-116 -139 -333 -139q-113 0 -200 38q-83 36 -140 109q-55 69 -82 170q-27 99 -27 220zM264 1343q62 70 109 94q49 25 90 25q35 0 64 -13q31 -14 58 -29 q24 -13 53 -27q28 -13 54 -13q44 0 94 50l50 -89q-50 -57 -98 -80q-46 -22 -81 -22q-33 0 -61 12q-23 10 -56 28q-18 10 -56 29q-26 13 -56 13q-29 0 -54 -14q-29 -16 -63 -50zM270 512q0 -73 16 -150q15 -71 48 -124t86 -86q52 -33 129 -33q140 -1 209 97t69 296 q0 80 -15 152q-15 71 -48 124q-34 54 -86 85q-53 32 -129 32q-140 1 -209.5 -97t-69.5 -296z" />
<glyph unicode="&#xf6;" horiz-adv-x="1097" d="M100 512q0 259 116 398t333 139q113 0 200 -38q83 -36 140 -109q55 -69 82 -170q26 -95 26 -220q0 -261 -115 -398q-116 -139 -333 -139q-113 0 -200 38q-83 36 -140 109q-55 69 -82 170q-27 99 -27 220zM254 1337q0 46 28 76q27 29 72 29q46 0 73 -29q28 -30 28 -76 q0 -41 -28 -71q-27 -29 -73 -29q-45 0 -72 29q-28 30 -28 71zM270 512q0 -73 16 -150q15 -71 48 -124t86 -86q52 -33 129 -33q140 -1 209 97t69 296q0 80 -15 152q-15 71 -48 124q-34 54 -86 85q-53 32 -129 32q-140 1 -209.5 -97t-69.5 -296zM647 1337q0 46 28 76 q27 29 73 29q47 0 74 -29q28 -30 28 -76q0 -41 -28 -71q-27 -29 -74 -29q-46 0 -73 29q-28 30 -28 71z" />
<glyph unicode="&#xf7;" horiz-adv-x="1034" d="M82 618v148h868v-148h-868zM397 307q0 55 32 87t85 32q54 0 88 -32q33 -32 33 -87q0 -53 -33 -86t-88 -33q-54 0 -85 33q-32 34 -32 86zM397 1075q0 55 32 87t85 32q54 0 88 -32q33 -32 33 -87q0 -53 -33 -86t-88 -33q-54 0 -85 33q-32 34 -32 86z" />
<glyph unicode="&#xf8;" horiz-adv-x="1097" d="M100 512q0 259 116 398t333 139q149 0 250 -66l53 72l102 -76l-59 -86q54 -71 78 -166q24 -96 24 -215q0 -261 -115 -398q-116 -139 -333 -139q-160 0 -262 72l-56 -76l-106 78l68 94q-48 71 -70 163q-23 95 -23 206zM270 512q0 -56 10 -119q9 -58 27 -104l404 561 q-32 26 -71 40q-41 15 -91 15q-140 1 -209.5 -97t-69.5 -296zM377 180q30 -25 75 -44q40 -17 97 -17q140 -1 209 97t69 296q0 69 -10 126q-11 61 -33 110z" />
<glyph unicode="&#xf9;" horiz-adv-x="1103" d="M141 406v618h164v-584q0 -80 9 -140q9 -58 32 -100q22 -39 62 -61q37 -20 98 -20q57 0 98 17q42 17 77 48q32 27 59 71q26 41 42 85v684h164v-733q0 -65 5 -153q4 -67 18 -138h-113l-41 162h-10q-47 -80 -127 -133q-82 -54 -203 -54q-79 0 -144 20q-64 20 -105 68 q-42 49 -63 133q-22 86 -22 210zM303 1432v43h195l133 -306h-92z" />
<glyph unicode="&#xfa;" horiz-adv-x="1103" d="M141 406v618h164v-584q0 -80 9 -140q9 -58 32 -100q22 -39 62 -61q37 -20 98 -20q57 0 98 17q42 17 77 48q32 27 59 71q26 41 42 85v684h164v-733q0 -65 5 -153q4 -67 18 -138h-113l-41 162h-10q-47 -80 -127 -133q-82 -54 -203 -54q-79 0 -144 20q-64 20 -105 68 q-42 49 -63 133q-22 86 -22 210zM463 1169l121 306h182v-43l-207 -263h-96z" />
<glyph unicode="&#xfb;" horiz-adv-x="1103" d="M141 406v618h164v-584q0 -80 9 -140q9 -58 32 -100q22 -39 62 -61q37 -20 98 -20q57 0 98 17q42 17 77 48q32 27 59 71q26 41 42 85v684h164v-733q0 -65 5 -153q4 -67 18 -138h-113l-41 162h-10q-47 -80 -127 -133q-82 -54 -203 -54q-79 0 -144 20q-64 20 -105 68 q-42 49 -63 133q-22 86 -22 210zM281 1126l251 373h66l227 -373h-147l-80 136l-43 118l-45 -118l-92 -136h-137z" />
<glyph unicode="&#xfc;" horiz-adv-x="1103" d="M141 406v618h164v-584q0 -80 9 -140q9 -58 32 -100q22 -39 62 -61q37 -20 98 -20q57 0 98 17q42 17 77 48q32 27 59 71q26 41 42 85v684h164v-733q0 -65 5 -153q4 -67 18 -138h-113l-41 162h-10q-47 -80 -127 -133q-82 -54 -203 -54q-79 0 -144 20q-64 20 -105 68 q-42 49 -63 133q-22 86 -22 210zM256 1337q0 46 28 76q27 29 72 29q46 0 73 -29q28 -30 28 -76q0 -41 -28 -71q-27 -29 -73 -29q-45 0 -72 29q-28 30 -28 71zM649 1337q0 46 28 76q27 29 73 29q47 0 74 -29q28 -30 28 -76q0 -41 -28 -71q-27 -29 -74 -29q-46 0 -73 29 q-28 30 -28 71z" />
<glyph unicode="&#xfd;" horiz-adv-x="954" d="M25 1024h188l246 -664l57 -196h10l45 198l199 662h166l-303 -920l-69 -194q-34 -94 -75 -168q-41 -75 -92 -118q-52 -44 -118 -44q-74 0 -121 21l28 141q26 -10 52 -10q58 0 110 60q54 61 88 208zM446 1169l121 306h183v-43l-207 -263h-97z" />
<glyph unicode="&#xfe;" horiz-adv-x="1107" d="M158 -410v1844h164v-512h8q39 58 108 93q67 34 164 34q205 0 305 -121q101 -122 101 -396q0 -130 -34 -232q-35 -105 -95 -175q-61 -72 -149 -111q-87 -39 -193 -39q-72 0 -120 10q-47 10 -95 31v-426h-164zM322 176q36 -28 84 -43q43 -14 124 -14q142 0 225 105 q83 106 83 311q0 83 -15 152q-15 70 -46 117t-82 75q-48 26 -124 26q-200 1 -249 -219v-510z" />
<glyph unicode="&#xff;" horiz-adv-x="954" d="M25 1024h188l246 -664l57 -196h10l45 198l199 662h166l-303 -920l-69 -194q-34 -94 -75 -168q-41 -75 -92 -118q-52 -44 -118 -44q-74 0 -121 21l28 141q26 -10 52 -10q58 0 110 60q54 61 88 208zM182 1337q0 46 28 76q27 29 73 29q45 0 72 -29q28 -30 28 -76 q0 -41 -28 -71q-27 -29 -72 -29q-46 0 -73 29q-28 30 -28 71zM575 1337q0 46 28 76q27 29 73 29q48 0 75 -29t27 -76q0 -43 -27 -71q-27 -29 -75 -29q-46 0 -73 29q-28 30 -28 71z" />
<glyph unicode="&#x152;" horiz-adv-x="1908" d="M115 717q0 359 151 550t432 191q100 0 159 -7q84 -10 128 -17h780v-152h-610v-469h559v-151h-559v-510h621v-152h-791q-41 -8 -123 -17q-77 -8 -164 -8q-146 0 -259 54q-110 53 -182 150q-73 99 -107 234q-35 138 -35 304zM295 717q0 -123 23 -225q24 -107 75 -188 t131 -129t191 -48q66 0 122 4q64 5 148 31v1104q-55 22 -133 31q-85 10 -154 10q-187 0 -296 -145q-107 -143 -107 -445z" />
<glyph unicode="&#x153;" horiz-adv-x="1757" d="M100 512q0 259 116 398t333 139q127 0 218 -54q90 -53 142 -135q52 85 145 137t214 52q65 0 139 -16q71 -15 125 -58q56 -44 90 -122q35 -81 35 -208q0 -22 -2 -72q-1 -32 -8 -77h-662q0 -87 19 -161q18 -71 57 -120q40 -50 102 -74q63 -24 154 -24q72 0 140 25 q69 25 104 59l61 -119q-61 -49 -155 -78q-95 -29 -197 -29q-126 0 -219 52q-95 53 -146 139q-55 -92 -144 -141q-89 -50 -212 -50q-113 0 -200 38q-83 36 -140 109q-55 69 -82 170q-27 99 -27 220zM270 512q0 -73 16 -150q15 -70 48 -125q33 -54 86 -86t129 -32 q138 -1 207 97t69 296q0 85 -14 152q-15 74 -47 124q-34 54 -86 85q-53 32 -129 32q-140 1 -209.5 -97t-69.5 -296zM989 625h508v18q0 142 -61 203t-166 61q-120 0 -193 -64t-88 -218z" />
<glyph unicode="&#x178;" horiz-adv-x="1142" d="M16 1434h199l336 -627l35 -125h2l37 129l321 623h182l-469 -863v-571h-170v569zM272 1626q0 42 31 70q29 26 80 26q48 0 77 -26t29 -70q0 -41 -29 -67q-30 -27 -77 -27q-50 0 -80 27q-31 28 -31 67zM666 1626q0 44 29 70t77 26q51 0 80 -26q31 -28 31 -70q0 -39 -31 -67 q-30 -27 -80 -27q-47 0 -77 27q-29 26 -29 67z" />
<glyph unicode="&#x2c6;" horiz-adv-x="790" d="M123 1126l252 373h65l228 -373h-148l-80 136l-43 118l-45 -118l-92 -136h-137z" />
<glyph unicode="&#x2dc;" horiz-adv-x="817" d="M123 1343q63 71 108 94q49 25 91 25q35 0 64 -13q25 -11 57 -29q19 -10 54 -27q28 -13 54 -13q44 0 94 50l49 -89q-50 -57 -97 -80q-46 -22 -81 -22q-32 0 -61 12q-27 11 -57 28q-27 15 -55 29q-26 13 -56 13t-55 -14q-27 -15 -62 -50z" />
<glyph unicode="&#x2000;" horiz-adv-x="891" />
<glyph unicode="&#x2001;" horiz-adv-x="1782" />
<glyph unicode="&#x2002;" horiz-adv-x="891" />
<glyph unicode="&#x2003;" horiz-adv-x="1782" />
<glyph unicode="&#x2004;" horiz-adv-x="594" />
<glyph unicode="&#x2005;" horiz-adv-x="445" />
<glyph unicode="&#x2006;" horiz-adv-x="297" />
<glyph unicode="&#x2007;" horiz-adv-x="297" />
<glyph unicode="&#x2008;" horiz-adv-x="222" />
<glyph unicode="&#x2009;" horiz-adv-x="356" />
<glyph unicode="&#x200a;" horiz-adv-x="99" />
<glyph unicode="&#x2010;" horiz-adv-x="737" d="M121 514v152h495v-152h-495z" />
<glyph unicode="&#x2011;" horiz-adv-x="737" d="M121 514v152h495v-152h-495z" />
<glyph unicode="&#x2012;" horiz-adv-x="737" d="M121 514v152h495v-152h-495z" />
<glyph unicode="&#x2013;" horiz-adv-x="1351" d="M242 514v152h868v-152h-868z" />
<glyph unicode="&#x2014;" horiz-adv-x="1679" d="M242 514v152h1196v-152h-1196z" />
<glyph unicode="&#x2018;" horiz-adv-x="397" d="M82 1313q0 68 19 115q19 46 47 82q25 32 58 55q29 20 52 28l51 -71q-44 -22 -72 -61t-28 -95q10 2 22 2q41 0 64 -29q22 -28 22 -69q0 -48 -30 -75q-31 -28 -78 -28q-55 0 -91 37q-36 38 -36 109z" />
<glyph unicode="&#x2019;" horiz-adv-x="397" d="M82 1350q0 46 30 73t76 27q58 0 94 -36q35 -35 35 -107q0 -69 -19 -117q-18 -46 -47 -83q-23 -30 -58 -54q-30 -21 -54 -29l-51 70q48 25 74 61t26 96q-10 -2 -22 -2q-39 0 -62 28q-22 26 -22 73z" />
<glyph unicode="&#x201a;" horiz-adv-x="397" d="M82 104q0 47 30 74t76 27q58 0 94 -36q35 -35 35 -108q0 -68 -19 -116q-18 -46 -47 -83q-25 -32 -58 -55q-27 -19 -54 -28l-51 69q47 24 74 62q26 36 26 96q-10 -2 -22 -2q-39 0 -62 28q-22 26 -22 72z" />
<glyph unicode="&#x201c;" horiz-adv-x="696" d="M82 1313q0 68 19 115q19 46 47 82q25 32 58 55q29 20 52 28l51 -71q-44 -22 -72 -61t-28 -95q10 2 22 2q41 0 64 -29q22 -28 22 -69q0 -48 -30 -75q-31 -28 -78 -28q-55 0 -91 37q-36 38 -36 109zM381 1313q0 68 19 115q19 46 47 82q25 32 58 55q29 20 52 28l51 -71 q-44 -22 -72 -61t-28 -95q10 2 22 2q41 0 64 -29q22 -28 22 -69q0 -48 -30 -75q-31 -28 -78 -28q-55 0 -91 37q-36 38 -36 109z" />
<glyph unicode="&#x201d;" horiz-adv-x="696" d="M82 1350q0 46 30 73t76 27q58 0 94 -36q35 -35 35 -107q0 -69 -19 -117q-18 -46 -47 -83q-23 -30 -58 -54q-30 -21 -54 -29l-51 70q48 25 74 61t26 96q-10 -2 -22 -2q-39 0 -62 28q-22 26 -22 73zM381 1350q0 46 30 73t76 27q58 0 94 -36q35 -35 35 -107q0 -69 -19 -117 q-18 -46 -47 -83q-23 -30 -58 -54q-30 -21 -54 -29l-51 70q48 25 74 61t26 96q-10 -2 -22 -2q-39 0 -62 28q-22 26 -22 73z" />
<glyph unicode="&#x201e;" horiz-adv-x="696" d="M82 104q0 47 30 74t76 27q58 0 94 -36q35 -35 35 -108q0 -68 -19 -116q-18 -46 -47 -83q-25 -32 -58 -55q-27 -19 -54 -28l-51 69q47 24 74 62q26 36 26 96q-10 -2 -22 -2q-39 0 -62 28q-22 26 -22 72zM381 104q0 47 30 74t76 27q58 0 94 -36q35 -35 35 -108 q0 -68 -19 -116q-18 -46 -47 -83q-25 -32 -58 -55q-27 -19 -54 -28l-51 69q47 24 74 62q26 36 26 96q-10 -2 -22 -2q-39 0 -62 28q-22 26 -22 72z" />
<glyph unicode="&#x2022;" horiz-adv-x="925" d="M178 637q0 62 23 116q23 53 60 90t90 58q52 21 112 21q57 0 111 -20q56 -21 91 -56q38 -38 60 -89q23 -54 23 -120t-23 -120q-22 -51 -60 -89q-35 -35 -91 -56q-54 -20 -111 -20q-58 0 -112 20t-90 56q-38 38 -60 89q-23 54 -23 120z" />
<glyph unicode="&#x2026;" horiz-adv-x="1554" d="M145 94q0 55 32 87t85 32q54 0 88 -32q33 -31 33 -87q0 -53 -33 -86t-88 -33q-54 0 -85 33q-32 34 -32 86zM666 94q0 56 31 87q32 32 85 32q54 0 88 -32q33 -31 33 -87q0 -53 -33 -86t-88 -33q-54 0 -85 33q-31 32 -31 86zM1186 94q0 55 32 87t85 32q54 0 88 -32 q32 -31 32 -87q0 -54 -32 -86q-33 -33 -88 -33q-53 0 -85 33q-32 34 -32 86z" />
<glyph unicode="&#x202f;" horiz-adv-x="356" />
<glyph unicode="&#x2039;" horiz-adv-x="608" d="M80 530l328 471l108 -88l-199 -297l-98 -84l98 -73l211 -291l-108 -90z" />
<glyph unicode="&#x203a;" horiz-adv-x="608" d="M80 911l108 90l340 -452l-327 -471l-109 88l199 297l98 84l-98 74z" />
<glyph unicode="&#x205f;" horiz-adv-x="445" />
<glyph unicode="&#x20ac;" d="M20 514l37 135h111v68v39q0 11 2 39h-150l37 135h127q22 138 76 240q53 99 128 164q74 64 168 94q93 30 198 30q106 0 180 -13q75 -13 131 -36l-45 -145q-44 21 -111 34q-68 13 -153 13q-70 0 -133 -21q-66 -22 -116 -65q-52 -44 -90 -118t-59 -177h578l-35 -135h-557 q-2 -24 -2 -38v-40v-35q0 -11 2 -33h516l-35 -135h-467q35 -199 143 -295t283 -96q81 0 147 18q65 18 113 47l41 -129q-63 -47 -152 -65q-97 -19 -183 -19q-236 0 -382 130q-148 131 -188 409h-160z" />
<glyph unicode="&#x2122;" horiz-adv-x="1812" d="M78 1294v140h717v-140h-279v-598h-160v598h-278zM877 696v738h159l215 -344l58 -119h2l61 123l199 340h162v-738h-156v342l20 211h-8l-80 -174l-178 -287h-67l-183 285l-73 176h-9l27 -209v-344h-149z" />
<glyph unicode="&#xe000;" horiz-adv-x="1024" d="M0 0v1024h1024v-1024h-1024z" />
</font>
</defs>
</svg>
